<?xml version="1.0" encoding="utf-8"?>
<!-- Generator: Adobe Illustrator 16.0.0, SVG Export Plug-In . SVG Version: 6.00 Build 0)  -->
<!DOCTYPE svg PUBLIC "-//W3C//DTD SVG 1.1//EN" "http://www.w3.org/Graphics/SVG/1.1/DTD/svg11.dtd">
<svg version="1.1" id="Layer_1" xmlns="http://www.w3.org/2000/svg" xmlns:xlink="http://www.w3.org/1999/xlink" x="0px" y="0px"
	 width="283.465px" height="283.5px" viewBox="0 0 283.465 283.5" enable-background="new 0 0 283.465 283.5" xml:space="preserve">
<g>
	
		<g id="base" inkscape:export-ydpi="45" inkscape:export-xdpi="45" inkscape:export-filename="C:\Stuff\Vectorize\Processing_Logo_Clipped.png" inkscape:version="0.47pre4 " sodipodi:docname="Processing_Logo_Clipped.svg" xmlns:dc="http://purl.org/dc/elements/1.1/" xmlns:cc="http://creativecommons.org/ns#" xmlns:rdf="http://www.w3.org/1999/02/22-rdf-syntax-ns#" xmlns:svg="http://www.w3.org/2000/svg" xmlns:sodipodi="http://sodipodi.sourceforge.net/DTD/sodipodi-0.dtd" xmlns:inkscape="http://www.inkscape.org/namespaces/inkscape">
		
			<linearGradient id="rect2862_1_" gradientUnits="userSpaceOnUse" x1="141.8984" y1="-339.3862" x2="141.8982" y2="-55.9219" gradientTransform="matrix(1 0 0 -1 -0.1655 -55.9219)">
			<stop  offset="0" style="stop-color:#171717"/>
			<stop  offset="1" style="stop-color:#031E38"/>
		</linearGradient>
		<path id="rect2862_2_" fill="url(#rect2862_1_)" d="M41.158,0h201.148c22.729,0,41.157,18.465,41.157,41.24v200.98
			c0,22.775-18.428,41.244-41.157,41.244H41.158c-22.73,0-41.157-18.467-41.157-41.244V41.24C0.001,18.465,18.429,0,41.158,0z"/>
	</g>
	<g>
		<path fill="none" d="M7.828,169.162l36.444,36.443l6.529-6.529l-14.324-14.322c-4.305-4.305-4.306-11.285,0-15.592l14.325-14.322
			l-14.325-14.326L0.002,104.041v17.656c2.832-0.008,5.666,1.066,7.827,3.227c4.305,4.305,4.306,11.285,0,15.59l-7.827,7.828v17.596
			C2.833,165.928,5.667,167.002,7.828,169.162z"/>
		
			<rect x="150.258" y="39.617" transform="matrix(-0.7071 0.7071 -0.7071 -0.7071 295.6659 -34.002)" fill="none" width="9.234" height="9.232"/>
		<path fill="none" d="M243.34,6.535l5.934-5.934C247.008,0.213,244.684,0,242.307,0h-5.49l-0.004,0.006L243.34,6.535z"/>
		
			<rect x="150.259" y="83.854" transform="matrix(-0.7071 0.7072 -0.7072 -0.7071 326.943 41.5009)" fill="none" width="9.233" height="9.232"/>
		<polygon fill="none" points="7.828,213.4 22.152,227.725 28.682,221.197 0.001,192.518 0.001,205.574 7.823,213.396 		"/>
		<path fill="none" d="M36.477,36.449L72.919,0.008L72.912,0H55.294c0.002,2.822-1.074,5.646-3.228,7.803L7.828,52.041l-7.827,7.824
			v12.996l0.032,0.031L36.477,36.449z"/>
		<path fill="none" d="M0.001,236.756v5.467c0,2.404,0.217,4.754,0.61,7.045l5.951-5.951L0.001,236.756z"/>
		<path fill="none" d="M273.254,140.516c-0.002,0-0.004,0.002-0.005,0.004l-44.233,44.234c-2.152,2.152-4.974,3.229-7.795,3.229
			c-2.82,0-5.643-1.076-7.795-3.229l-14.322-14.324l-6.529,6.529l36.441,36.441c4.305,4.307,4.305,11.285,0,15.592
			c-2.152,2.15-4.974,3.227-7.795,3.227c-2.82,0-5.643-1.076-7.795-3.227l-44.236-44.238c-2.152-2.152-3.229-4.975-3.229-7.795
			c0-2.469,0.823-4.938,2.471-6.957c0.235-0.289,0.487-0.568,0.756-0.838l14.324-14.324l-14.318-14.32
			c-0.002-0.002-0.002-0.004-0.004-0.004l-14.324-14.324l-14.323,14.322l-44.238,44.24c-0.001,0.002-0.004,0.004-0.005,0.008
			L81.98,199.078l6.529,6.527l36.443-36.441c4.306-4.305,11.285-4.305,15.59,0c4.306,4.305,4.306,11.283,0,15.59l-44.232,44.23
			c-0.001,0.002-0.003,0.006-0.005,0.008c-2.153,2.15-4.974,3.227-7.795,3.227c-2.821,0-5.642-1.074-7.795-3.227
			c-0.001-0.002-0.003-0.006-0.005-0.008l-14.319-14.316l-14.318,14.316c-0.001,0.002-0.003,0.006-0.005,0.008l-14.324,14.322
			l14.324,14.324c4.305,4.307,4.304,11.285,0,15.592c-2.152,2.152-4.974,3.229-7.794,3.229c-2.822,0-5.643-1.076-7.795-3.229
			l-14.324-14.324l-6.53,6.529l17.176,17.176c2.699,0.559,5.495,0.854,8.359,0.854h201.148c22.729,0,41.157-18.467,41.157-41.242
			V130.305L273.254,140.516z"/>
		
			<rect x="61.758" y="172.323" transform="matrix(0.7071 0.7071 -0.7071 0.7071 144.5621 4.8936)" fill="none" width="9.233" height="9.234"/>
		<path fill="none" d="M3.064,25.625L25.649,3.039C15.421,7.215,7.249,15.387,3.064,25.625z"/>
		<polygon fill="none" points="154.865,6.535 161.4,0 148.342,0 148.336,0.008 		"/>
		<path fill="none" d="M273.254,36.449l10.21,10.211v-5.42c0-12.006-5.125-22.811-13.299-30.35L258.93,22.127L273.254,36.449z"/>
		<path fill="none" d="M96.303,7.803L52.066,52.039L15.622,88.482l36.443,36.441l0,0l0,0l14.323,14.322l6.53-6.527L36.476,96.277
			c-4.305-4.305-4.305-11.285,0-15.59l44.237-44.238c4.306-4.305,11.285-4.305,15.59,0c4.305,4.307,4.305,11.285,0,15.59
			L59.86,88.482l36.443,36.441c0.269,0.27,0.521,0.547,0.757,0.836c3.531,4.33,3.279,10.717-0.756,14.754l-14.325,14.324
			l6.529,6.529l28.648-28.648L80.713,96.277c-4.305-4.305-4.305-11.285,0-15.59c4.306-4.305,11.285-4.305,15.59,0l36.443,36.441
			l6.529-6.527l-14.323-14.324c-4.305-4.305-4.305-11.285,0-15.59l14.325-14.324l-14.325-14.324
			c-3.766-3.768-4.237-9.58-1.412-13.859c0.403-0.611,0.875-1.191,1.413-1.73l14.324-14.322L124.958,7.809
			c-0.001-0.002-0.004-0.004-0.005-0.006l0,0l0,0l-7.801-7.801h-13.045L96.303,7.803L96.303,7.803z"/>
		<path fill="none" d="M170.455,22.127l14.324,14.322c0.537,0.539,1.009,1.117,1.412,1.73c1.211,1.832,1.815,3.949,1.815,6.064
			c0,2.82-1.077,5.643-3.228,7.795l-14.324,14.324l14.324,14.322c4.304,4.307,4.304,11.285,0,15.592L170.455,110.6l6.529,6.527
			l36.441-36.441c4.307-4.305,11.285-4.305,15.59,0c4.305,4.307,4.305,11.285,0,15.592l-36.443,36.441l6.531,6.527l14.322-14.322
			c4.307-4.307,11.285-4.307,15.59-0.002s4.305,11.285,0,15.59l-14.324,14.326l6.529,6.527l36.438-36.438
			c0.002-0.002,0.003-0.004,0.005-0.006l14.324-14.322l-14.324-14.322l-44.238-44.238c-2.152-2.152-3.229-4.975-3.229-7.795
			c0-2.115,0.605-4.232,1.816-6.064c0.403-0.613,0.875-1.191,1.412-1.73l14.324-14.322L213.426,7.803
			c-2.154-2.154-3.229-4.98-3.229-7.803H192.58l-7.801,7.803L170.455,22.127z"/>
		<polygon fill="none" points="283.464,90.898 283.464,86.066 281.049,88.482 		"/>
		<polygon fill="none" points="243.34,37.717 236.811,44.244 265.459,72.893 271.988,66.363 257.669,52.045 257.664,52.039 		"/>
		<polygon opacity="0.1373" fill="#75A2F2" enable-background="new    " points="0.001,72.861 0.001,72.926 0.033,72.893 		"/>
		<path opacity="0.1373" fill="#75A2F2" enable-background="new    " d="M7.823,213.396l-7.822-7.822v4.602
			C2.831,210.166,5.663,211.238,7.823,213.396z"/>
		<path opacity="0.1412" fill="#75A2F2" enable-background="new    " d="M7.828,52.039c-2.152,2.152-4.974,3.23-7.794,3.23
			c-0.011,0-0.021-0.004-0.032-0.004v4.6L7.828,52.039L7.828,52.039z"/>
		<path opacity="0.1412" fill="#75A2F2" enable-background="new    " d="M36.476,140.514c-4.305-4.305-4.304-11.285,0-15.59
			c4.306-4.305,11.285-4.303,15.589,0.002c0-0.002,0-0.002,0-0.002L15.622,88.484l-7.795,7.795c-0.269,0.27-0.548,0.521-0.837,0.756
			c-2.02,1.648-4.489,2.475-6.957,2.475c-0.011,0-0.021-0.004-0.032-0.004v4.537L36.476,140.514L36.476,140.514z"/>
		<path opacity="0.1373" fill="#75A2F2" enable-background="new    " d="M0.001,99.506L0.001,99.506
			c0.011,0,0.021,0.002,0.032,0.002C0.022,99.508,0.012,99.506,0.001,99.506z"/>
		<path opacity="0.1412" fill="#75A2F2" enable-background="new    " d="M0.001,99.506L0.001,99.506
			c0.011,0,0.021,0.002,0.032,0.002C0.022,99.508,0.012,99.506,0.001,99.506z"/>
		<path opacity="0.1412" fill="#75A2F2" enable-background="new    " d="M7.828,124.924c-2.161-2.16-4.995-3.234-7.827-3.227v26.645
			l7.827-7.828C12.133,136.209,12.133,129.229,7.828,124.924z"/>
		<path opacity="0.1412" fill="#75A2F2" enable-background="new    " d="M36.476,213.4c0.001-0.002,0.004-0.004,0.005-0.006
			l7.79-7.789L7.827,169.162c-2.161-2.16-4.995-3.234-7.827-3.227v26.58l28.681,28.682L36.476,213.4z"/>
		<path opacity="0.1412" fill="#75A2F2" enable-background="new    " d="M36.476,273.23c2.153,2.152,4.974,3.229,7.795,3.229
			c2.82,0,5.642-1.076,7.794-3.229c4.305-4.307,4.305-11.285,0-15.592l-14.324-14.324l-15.59,15.592L36.476,273.23z"/>
		<path opacity="0.1412" fill="#75A2F2" enable-background="new    " d="M22.152,227.725L7.828,213.402
			c-0.001-0.002-0.004-0.004-0.005-0.006l0.005,0.006c4.305,4.307,4.305,11.285,0,15.59c-2.153,2.15-4.974,3.229-7.795,3.229
			c-0.011,0-0.021,0-0.032,0v4.535l6.561,6.561L22.152,227.725z"/>
		<path opacity="0.1373" fill="#75A2F2" enable-background="new    " d="M7.828,228.992c4.305-4.307,4.305-11.285,0-15.592
			l-0.005-0.006c-2.16-2.156-4.992-3.229-7.822-3.221v22.045c0.011,0,0.021,0,0.032,0C2.854,232.219,5.675,231.143,7.828,228.992z"
			/>
		<path opacity="0.1412" fill="#75A2F2" enable-background="new    " d="M7.828,228.992c4.305-4.307,4.305-11.285,0-15.592
			l-0.005-0.006c-2.16-2.156-4.992-3.229-7.822-3.221v22.045c0.011,0,0.021,0,0.032,0C2.854,232.219,5.675,231.143,7.828,228.992z"
			/>
		<path opacity="0.1412" fill="#75A2F2" enable-background="new    " d="M10.895,270.164c5.721,6.221,13.323,10.674,21.904,12.447
			l-17.176-17.176L10.895,270.164z"/>
		<polygon opacity="0.1412" fill="#75A2F2" enable-background="new    " points="72.925,0 72.912,0 72.919,0.008 		"/>
		<path opacity="0.1412" fill="#75A2F2" enable-background="new    " d="M7.828,52.039L7.828,52.039L52.066,7.803
			c2.154-2.154,3.23-4.98,3.228-7.803H41.158C35.67,0,30.437,1.086,25.649,3.039L3.064,25.625c-0.996,2.436-1.768,4.986-2.285,7.633
			c2.567,0.172,5.086,1.23,7.049,3.191C12.133,40.756,12.133,47.734,7.828,52.039z"/>
		<path opacity="0.1412" fill="#75A2F2" enable-background="new    " d="M7.828,52.039L7.828,52.039L7.828,52.039
			c4.305-4.305,4.305-11.283,0-15.59c-1.962-1.961-4.481-3.02-7.049-3.191c-0.506,2.584-0.778,5.252-0.778,7.982v14.025
			c0.011,0,0.021,0.004,0.032,0.004C2.854,55.27,5.675,54.191,7.828,52.039z"/>
		<path opacity="0.1412" fill="#75A2F2" enable-background="new    " d="M7.828,52.039L7.828,52.039L7.828,52.039
			c4.305-4.305,4.305-11.283,0-15.59c-1.962-1.961-4.481-3.02-7.049-3.191c-0.506,2.584-0.778,5.252-0.778,7.982v14.025
			c0.011,0,0.021,0.004,0.032,0.004C2.854,55.27,5.675,54.191,7.828,52.039z"/>
		<path opacity="0.1412" fill="#75A2F2" enable-background="new    " d="M44.272,55.27c-2.821,0-5.643-1.076-7.795-3.229
			c-4.305-4.307-4.305-11.285,0-15.592L0.034,72.893l7.794,7.795l7.795,7.797l36.444-36.443
			C49.914,54.191,47.092,55.27,44.272,55.27z"/>
		<path opacity="0.1373" fill="#75A2F2" enable-background="new    " d="M7.828,80.688L7.828,80.688l-7.794-7.795l-0.032,0.033
			v4.535C2.833,77.451,5.667,78.527,7.828,80.688z"/>
		<path opacity="0.1412" fill="#75A2F2" enable-background="new    " d="M7.828,80.688L7.828,80.688l-7.794-7.795l-0.032,0.033
			v4.535C2.833,77.451,5.667,78.527,7.828,80.688z"/>
		<path opacity="0.1412" fill="#75A2F2" enable-background="new    " d="M7.828,80.688c4.305,4.307,4.305,11.285,0,15.592
			l7.795-7.795L7.828,80.688L7.828,80.688z"/>
		<path opacity="0.1412" fill="#75A2F2" enable-background="new    " d="M7.828,80.688c4.305,4.307,4.305,11.285,0,15.592
			l7.795-7.795L7.828,80.688L7.828,80.688z"/>
		<path opacity="0.1412" fill="#75A2F2" enable-background="new    " d="M6.99,97.035c-2.02,1.646-4.489,2.473-6.957,2.473
			C2.501,99.508,4.97,98.684,6.99,97.035z"/>
		<path opacity="0.1412" fill="#75A2F2" enable-background="new    " d="M6.99,97.035c-2.02,1.646-4.489,2.473-6.957,2.473
			C2.501,99.508,4.97,98.684,6.99,97.035z"/>
		<path opacity="0.1373" fill="#75A2F2" enable-background="new    " d="M6.99,97.035c0.289-0.236,0.568-0.488,0.837-0.758
			c4.305-4.305,4.305-11.285,0-15.59l0,0l0,0C5.666,78.527,2.832,77.451,0,77.461v22.043c0.011,0,0.021,0.004,0.032,0.004
			C2.501,99.508,4.97,98.684,6.99,97.035z"/>
		<path opacity="0.1412" fill="#75A2F2" enable-background="new    " d="M6.99,97.035c0.289-0.236,0.568-0.488,0.837-0.758
			c4.305-4.305,4.305-11.285,0-15.59l0,0l0,0C5.666,78.527,2.832,77.451,0,77.461v22.043c0.011,0,0.021,0.004,0.032,0.004
			C2.501,99.508,4.97,98.684,6.99,97.035z"/>
		<path opacity="0.1412" fill="#75A2F2" enable-background="new    " d="M6.99,97.035c0.289-0.236,0.568-0.488,0.837-0.758
			c4.305-4.305,4.305-11.285,0-15.59l0,0l0,0C5.666,78.527,2.832,77.451,0,77.461v22.043c0.011,0,0.021,0.004,0.032,0.004
			C2.501,99.508,4.97,98.684,6.99,97.035z"/>
		<path opacity="0.1412" fill="#75A2F2" enable-background="new    " d="M96.303,124.924L59.86,88.484l-7.794,7.795
			c-2.153,2.152-4.974,3.229-7.795,3.229s-5.643-1.076-7.795-3.229l36.442,36.441l7.794-7.795
			C85.019,120.619,91.999,120.619,96.303,124.924z"/>
		<polygon opacity="0.1412" fill="#75A2F2" enable-background="new    " points="72.919,176.959 80.709,169.17 80.713,169.162 
			88.508,161.367 81.979,154.84 66.389,170.43 		"/>
		<path opacity="0.1412" fill="#75A2F2" enable-background="new    " d="M52.066,124.926L52.066,124.926
			c4.304,4.305,4.305,11.283,0,15.588c-2.153,2.152-4.974,3.229-7.795,3.229s-5.643-1.074-7.795-3.227v-0.002l14.325,14.326
			l15.588-15.592L52.066,124.926z"/>
		<path opacity="0.1412" fill="#75A2F2" enable-background="new    " d="M44.272,143.742c2.821,0,5.642-1.076,7.795-3.229
			c4.305-4.305,4.304-11.285,0-15.59c-4.304-4.305-11.283-4.305-15.589,0c-4.305,4.305-4.306,11.285,0,15.59l0,0l0,0
			C38.629,142.666,41.45,143.742,44.272,143.742z"/>
		<path opacity="0.1412" fill="#75A2F2" enable-background="new    " d="M44.272,143.742c2.821,0,5.642-1.076,7.795-3.229
			c4.305-4.305,4.304-11.285,0-15.59c-4.304-4.305-11.283-4.305-15.589,0c-4.305,4.305-4.306,11.285,0,15.59l0,0l0,0
			C38.629,142.666,41.45,143.742,44.272,143.742z"/>
		<path opacity="0.1412" fill="#75A2F2" enable-background="new    " d="M88.508,232.219c2.821,0,5.643-1.076,7.795-3.227
			c0.001-0.002,0.003-0.006,0.005-0.008l-0.005,0.008C94.151,231.143,91.329,232.219,88.508,232.219z"/>
		<path opacity="0.1412" fill="#75A2F2" enable-background="new    " d="M59.86,176.959l-7.794,7.795
			c-2.153,2.152-4.974,3.229-7.795,3.229s-5.643-1.076-7.795-3.229L50.8,199.076l15.589-15.588L59.86,176.959z"/>
		<path opacity="0.1412" fill="#75A2F2" enable-background="new    " d="M80.709,228.984c-4.299-4.305-4.298-11.279,0.005-15.584
			l7.794-7.795l-6.529-6.529l-15.59,15.592L80.709,228.984z"/>
		<path opacity="0.1412" fill="#75A2F2" enable-background="new    " d="M7.833,257.646l7.79,7.789l6.53-6.529l-15.59-15.592
			l-5.951,5.953c0.082,0.473,0.163,0.947,0.26,1.416l6.957,6.955C7.83,257.643,7.832,257.645,7.833,257.646z"/>
		<path opacity="0.1412" fill="#75A2F2" enable-background="new    " d="M36.476,228.992c-0.001-0.002-0.003-0.006-0.005-0.008
			l-7.79-7.787l-6.529,6.527l15.59,15.59l14.324-14.322c-2.153,2.15-4.974,3.227-7.795,3.227S38.629,231.145,36.476,228.992z"/>
		<path opacity="0.1373" fill="#75A2F2" enable-background="new    " d="M7.833,257.646c-0.001-0.002-0.003-0.004-0.005-0.008
			l-6.957-6.955c0.275,1.322,0.613,2.619,1.01,3.893c2.177,0.367,4.266,1.385,5.946,3.062L7.833,257.646z"/>
		<path opacity="0.1412" fill="#75A2F2" enable-background="new    " d="M7.833,257.646c-0.001-0.002-0.003-0.004-0.005-0.008
			l-6.957-6.955c0.275,1.322,0.613,2.619,1.01,3.893c2.177,0.367,4.266,1.385,5.946,3.062L7.833,257.646z"/>
		<path opacity="0.1412" fill="#75A2F2" enable-background="new    " d="M44.272,232.219c2.821,0,5.642-1.076,7.795-3.227
			c0.001-0.002,0.003-0.006,0.005-0.008l-0.005,0.008C49.914,231.143,47.092,232.219,44.272,232.219z"/>
		<path opacity="0.1412" fill="#75A2F2" enable-background="new    " d="M44.272,232.219c2.821,0,5.642-1.076,7.795-3.227
			c0.001-0.002,0.003-0.006,0.005-0.008l-0.005,0.008C49.914,231.143,47.092,232.219,44.272,232.219z"/>
		<path opacity="0.1412" fill="#75A2F2" enable-background="new    " d="M36.477,213.4l0.005-0.006
			C36.48,213.396,36.478,213.398,36.477,213.4l-7.795,7.797l7.79,7.787C32.172,224.68,32.173,217.705,36.477,213.4z"/>
		<path opacity="0.1412" fill="#75A2F2" enable-background="new    " d="M36.477,213.4l0.005-0.006
			C36.48,213.396,36.478,213.398,36.477,213.4l-7.795,7.797l7.79,7.787C32.172,224.68,32.173,217.705,36.477,213.4z"/>
		
			<rect x="11.108" y="232.261" transform="matrix(0.7071 0.7071 -0.7071 0.7071 178.5058 55.602)" opacity="0.1412" fill="#75A2F2" enable-background="new    " width="22.048" height="22.049"/>
		
			<rect x="11.108" y="232.261" transform="matrix(0.7071 0.7071 -0.7071 0.7071 178.5058 55.602)" opacity="0.1412" fill="#75A2F2" enable-background="new    " width="22.048" height="22.049"/>
		<path opacity="0.1412" fill="#75A2F2" enable-background="new    " d="M7.833,257.646c3.197,3.201,4.012,7.877,2.452,11.834
			c0.202,0.229,0.403,0.459,0.609,0.684l4.728-4.729L7.833,257.646z"/>
		<path opacity="0.1412" fill="#75A2F2" enable-background="new    " d="M7.833,257.646c3.197,3.201,4.012,7.877,2.452,11.834
			c0.202,0.229,0.403,0.459,0.609,0.684l4.728-4.729L7.833,257.646z"/>
		<path opacity="0.1373" fill="#75A2F2" enable-background="new    " d="M7.833,257.646l-0.005-0.008
			c-1.68-1.68-3.769-2.695-5.946-3.062c1.744,5.572,4.642,10.629,8.403,14.904C11.845,265.523,11.03,260.848,7.833,257.646z"/>
		<path opacity="0.1412" fill="#75A2F2" enable-background="new    " d="M7.833,257.646l-0.005-0.008
			c-1.68-1.68-3.769-2.695-5.946-3.062c1.744,5.572,4.642,10.629,8.403,14.904C11.845,265.523,11.03,260.848,7.833,257.646z"/>
		<path opacity="0.1412" fill="#75A2F2" enable-background="new    " d="M7.833,257.646l-0.005-0.008
			c-1.68-1.68-3.769-2.695-5.946-3.062c1.744,5.572,4.642,10.629,8.403,14.904C11.845,265.523,11.03,260.848,7.833,257.646z"/>
		<path opacity="0.1412" fill="#75A2F2" enable-background="new    " d="M124.952,7.803c-2.154-2.154-3.23-4.98-3.229-7.803h-4.573
			L124.952,7.803C124.951,7.803,124.951,7.803,124.952,7.803z"/>
		<polygon opacity="0.1412" fill="#75A2F2" enable-background="new    " points="96.304,7.803 96.304,7.803 96.303,7.803 		"/>
		<path opacity="0.1412" fill="#75A2F2" enable-background="new    " d="M52.066,36.449c4.304,4.307,4.304,11.285,0,15.59
			L96.303,7.803c-0.709,0.709-1.496,1.291-2.327,1.766c-0.115,0.064-0.225,0.141-0.342,0.201c-0.046,0.025-0.094,0.043-0.14,0.066
			c-1.563,0.791-3.273,1.195-4.986,1.195c-1.712,0-3.423-0.404-4.986-1.195c-0.046-0.023-0.094-0.041-0.14-0.066
			c-0.117-0.062-0.228-0.137-0.342-0.201c-0.516-0.295-1.018-0.625-1.489-1.01c-0.103-0.084-0.198-0.18-0.297-0.27
			c-0.182-0.158-0.366-0.312-0.54-0.486l0,0l0,0L72.92,0.008L36.478,36.449C40.781,32.146,47.761,32.146,52.066,36.449z"/>
		<path opacity="0.1412" fill="#75A2F2" enable-background="new    " d="M83.522,9.836c1.563,0.791,3.274,1.195,4.986,1.195
			C86.796,11.031,85.085,10.627,83.522,9.836z"/>
		<path opacity="0.1412" fill="#75A2F2" enable-background="new    " d="M83.522,9.836c1.563,0.791,3.274,1.195,4.986,1.195
			C86.796,11.031,85.085,10.627,83.522,9.836z"/>
		<path opacity="0.1412" fill="#75A2F2" enable-background="new    " d="M81.254,8.289c0.1,0.09,0.195,0.186,0.297,0.27
			C81.449,8.475,81.354,8.379,81.254,8.289z"/>
		<path opacity="0.1412" fill="#75A2F2" enable-background="new    " d="M81.254,8.289c0.1,0.09,0.195,0.186,0.297,0.27
			C81.449,8.475,81.354,8.379,81.254,8.289z"/>
		<path opacity="0.1412" fill="#75A2F2" enable-background="new    " d="M80.713,7.803L80.713,7.803
			C78.559,5.648,77.484,2.822,77.485,0h-4.56l-0.006,0.008L80.713,7.803z"/>
		<path opacity="0.1412" fill="#75A2F2" enable-background="new    " d="M80.713,7.803L80.713,7.803
			C78.559,5.648,77.484,2.822,77.485,0h-4.56l-0.006,0.008L80.713,7.803z"/>
		<path opacity="0.1412" fill="#75A2F2" enable-background="new    " d="M83.041,9.568c0.114,0.064,0.225,0.141,0.342,0.201
			C83.266,9.709,83.155,9.633,83.041,9.568z"/>
		<path opacity="0.1412" fill="#75A2F2" enable-background="new    " d="M83.041,9.568c0.114,0.064,0.225,0.141,0.342,0.201
			C83.266,9.709,83.155,9.633,83.041,9.568z"/>
		<path opacity="0.1412" fill="#75A2F2" enable-background="new    " d="M96.304,7.803c-0.709,0.709-1.497,1.289-2.327,1.766
			C94.807,9.094,95.594,8.512,96.304,7.803C96.303,7.803,96.303,7.803,96.304,7.803z"/>
		<path opacity="0.1412" fill="#75A2F2" enable-background="new    " d="M96.304,7.803c-0.709,0.709-1.497,1.289-2.327,1.766
			C94.807,9.094,95.594,8.512,96.304,7.803C96.303,7.803,96.303,7.803,96.304,7.803z"/>
		<path opacity="0.1412" fill="#75A2F2" enable-background="new    " d="M93.495,9.836c0.046-0.023,0.094-0.041,0.14-0.066
			C93.589,9.795,93.541,9.812,93.495,9.836z"/>
		<path opacity="0.1412" fill="#75A2F2" enable-background="new    " d="M93.495,9.836c0.046-0.023,0.094-0.041,0.14-0.066
			C93.589,9.795,93.541,9.812,93.495,9.836z"/>
		<path opacity="0.1412" fill="#75A2F2" enable-background="new    " d="M36.477,52.039c2.152,2.152,4.974,3.23,7.795,3.23
			s5.642-1.078,7.795-3.23c4.304-4.305,4.304-11.283,0-15.59c-4.306-4.305-11.285-4.305-15.59,0
			C32.172,40.756,32.172,47.734,36.477,52.039z"/>
		<path opacity="0.1412" fill="#75A2F2" enable-background="new    " d="M36.477,52.039c2.152,2.152,4.974,3.23,7.795,3.23
			s5.642-1.078,7.795-3.23c4.304-4.305,4.304-11.283,0-15.59c-4.306-4.305-11.285-4.305-15.59,0
			C32.172,40.756,32.172,47.734,36.477,52.039z"/>
		<path opacity="0.1412" fill="#75A2F2" enable-background="new    " d="M52.066,80.688l7.794,7.797l36.443-36.443
			c4.304-4.307,4.304-11.285,0-15.592c-4.305-4.303-11.284-4.305-15.59,0L36.476,80.688C40.782,76.383,47.761,76.385,52.066,80.688z
			"/>
		<path opacity="0.1412" fill="#75A2F2" enable-background="new    " d="M52.066,96.277l7.794-7.795l-7.794-7.795
			c-4.305-4.305-11.284-4.305-15.59,0c-4.304,4.305-4.304,11.285,0,15.59c2.152,2.152,4.974,3.23,7.795,3.23
			S49.914,98.432,52.066,96.277z"/>
		<path opacity="0.1412" fill="#75A2F2" enable-background="new    " d="M52.066,96.277l7.794-7.795l-7.794-7.795
			c-4.305-4.305-11.284-4.305-15.59,0c-4.304,4.305-4.304,11.285,0,15.59c2.152,2.152,4.974,3.23,7.795,3.23
			S49.914,98.432,52.066,96.277z"/>
		<path opacity="0.1412" fill="#75A2F2" enable-background="new    " d="M124.952,124.926
			C124.952,124.924,124.952,124.924,124.952,124.926l7.794-7.795L96.303,80.688c-4.305-4.303-11.284-4.305-15.59,0
			c-4.305,4.307-4.305,11.285,0,15.592l36.443,36.441L124.952,124.926C124.951,124.926,124.951,124.926,124.952,124.926z"/>
		<path opacity="0.1412" fill="#75A2F2" enable-background="new    " d="M52.066,169.162l7.794,7.797l6.529-6.529l-15.588-15.59
			l-14.325,14.322C40.782,164.859,47.761,164.857,52.066,169.162z"/>
		<path opacity="0.1412" fill="#75A2F2" enable-background="new    " d="M96.304,140.514c-2.153,2.152-4.974,3.229-7.795,3.229
			c-2.821,0-5.642-1.074-7.794-3.227l-7.795-7.795l-6.53,6.527l15.59,15.592L96.304,140.514z"/>
		<path opacity="0.1412" fill="#75A2F2" enable-background="new    " d="M96.304,140.514c4.036-4.035,4.288-10.422,0.756-14.752
			C100.591,130.092,100.339,136.479,96.304,140.514z"/>
		<path opacity="0.1412" fill="#75A2F2" enable-background="new    " d="M36.476,169.162c-4.305,4.307-4.304,11.287,0,15.592
			C32.172,180.447,32.172,173.469,36.476,169.162z"/>
		<path opacity="0.1412" fill="#75A2F2" enable-background="new    " d="M88.508,143.742c2.821,0,5.643-1.076,7.795-3.229
			c4.035-4.037,4.288-10.424,0.756-14.754c-0.235-0.289-0.488-0.566-0.757-0.836c-4.305-4.305-11.284-4.305-15.59,0l-7.794,7.795
			l7.795,7.795C82.866,142.666,85.688,143.742,88.508,143.742z"/>
		<path opacity="0.1412" fill="#75A2F2" enable-background="new    " d="M88.508,143.742c2.821,0,5.643-1.076,7.795-3.229
			c4.035-4.037,4.288-10.424,0.756-14.754c-0.235-0.289-0.488-0.566-0.757-0.836c-4.305-4.305-11.284-4.305-15.59,0l-7.794,7.795
			l7.795,7.795C82.866,142.666,85.688,143.742,88.508,143.742z"/>
		
			<rect x="55.379" y="143.831" transform="matrix(-0.7071 -0.7072 0.7072 -0.7071 3.8502 311.302)" opacity="0.1412" fill="#75A2F2" enable-background="new    " width="22.049" height="22.046"/>
		
			<rect x="55.379" y="143.831" transform="matrix(-0.7071 -0.7072 0.7072 -0.7071 3.8502 311.302)" opacity="0.1412" fill="#75A2F2" enable-background="new    " width="22.049" height="22.046"/>
		<path opacity="0.1412" fill="#75A2F2" enable-background="new    " d="M52.066,184.754l7.794-7.795l-7.794-7.797
			c-4.305-4.305-11.284-4.303-15.59,0c-4.304,4.307-4.304,11.285,0,15.592c2.152,2.152,4.974,3.229,7.795,3.229
			S49.914,186.906,52.066,184.754z"/>
		<path opacity="0.1412" fill="#75A2F2" enable-background="new    " d="M52.066,184.754l7.794-7.795l-7.794-7.797
			c-4.305-4.305-11.284-4.303-15.59,0c-4.304,4.307-4.304,11.285,0,15.592c2.152,2.152,4.974,3.229,7.795,3.229
			S49.914,186.906,52.066,184.754z"/>
		<path opacity="0.1412" fill="#75A2F2" enable-background="new    " d="M80.713,184.754l-7.794-7.795l-6.53,6.529l15.59,15.588
			l14.319-14.314c-2.152,2.145-4.971,3.223-7.79,3.223C85.687,187.982,82.866,186.906,80.713,184.754z"/>
		<path opacity="0.1412" fill="#75A2F2" enable-background="new    " d="M44.272,205.605l7.794,7.795
			c4.303,4.305,4.305,11.279,0.005,15.584l14.318-14.316L50.8,199.076L44.272,205.605z"/>
		<path opacity="0.1412" fill="#75A2F2" enable-background="new    " d="M52.066,213.4l-7.794-7.795l-7.79,7.789
			C40.788,209.1,47.763,209.1,52.066,213.4z"/>
		<path opacity="0.1412" fill="#75A2F2" enable-background="new    " d="M52.066,213.4l-7.794-7.795l-7.79,7.789
			C40.788,209.1,47.763,209.1,52.066,213.4z"/>
		<path opacity="0.1412" fill="#75A2F2" enable-background="new    " d="M80.709,169.17l-7.79,7.789l7.794,7.795
			c2.153,2.152,4.974,3.229,7.795,3.229c-2.821,0-5.642-1.076-7.794-3.229C76.411,180.451,76.409,173.477,80.709,169.17z"/>
		<path opacity="0.1412" fill="#75A2F2" enable-background="new    " d="M80.709,169.17l-7.79,7.789l7.794,7.795
			c2.153,2.152,4.974,3.229,7.795,3.229c-2.821,0-5.642-1.076-7.794-3.229C76.411,180.451,76.409,173.477,80.709,169.17z"/>
		
			<rect x="55.351" y="188.037" transform="matrix(0.7071 0.7071 -0.7071 0.7071 160.2007 11.3709)" opacity="0.1412" fill="#75A2F2" enable-background="new    " width="22.047" height="22.047"/>
		
			<rect x="55.351" y="188.037" transform="matrix(0.7071 0.7071 -0.7071 0.7071 160.2007 11.3709)" opacity="0.1412" fill="#75A2F2" enable-background="new    " width="22.047" height="22.047"/>
		<path opacity="0.1412" fill="#75A2F2" enable-background="new    " d="M44.272,232.219c-2.821,0-5.643-1.074-7.795-3.227
			l-0.005-0.008c0.001,0.002,0.003,0.006,0.005,0.008C38.629,231.145,41.45,232.219,44.272,232.219z"/>
		<path opacity="0.1412" fill="#75A2F2" enable-background="new    " d="M44.272,232.219c-2.821,0-5.643-1.074-7.795-3.227
			l-0.005-0.008c0.001,0.002,0.003,0.006,0.005,0.008C38.629,231.145,41.45,232.219,44.272,232.219z"/>
		<path opacity="0.1412" fill="#75A2F2" enable-background="new    " d="M52.066,213.4c-4.303-4.303-11.278-4.303-15.584-0.006
			l-0.005,0.006c-4.303,4.305-4.304,11.279-0.005,15.584l0.005,0.008c2.152,2.152,4.974,3.227,7.795,3.227
			c2.82,0,5.642-1.076,7.794-3.227l0.005-0.008C56.371,224.68,56.369,217.705,52.066,213.4z"/>
		<path opacity="0.1412" fill="#75A2F2" enable-background="new    " d="M52.066,213.4c-4.303-4.303-11.278-4.303-15.584-0.006
			l-0.005,0.006c-4.303,4.305-4.304,11.279-0.005,15.584l0.005,0.008c2.152,2.152,4.974,3.227,7.795,3.227
			c2.82,0,5.642-1.076,7.794-3.227l0.005-0.008C56.371,224.68,56.369,217.705,52.066,213.4z"/>
		<path opacity="0.1412" fill="#75A2F2" enable-background="new    " d="M52.066,213.4c-4.303-4.303-11.278-4.303-15.584-0.006
			l-0.005,0.006c-4.303,4.305-4.304,11.279-0.005,15.584l0.005,0.008c2.152,2.152,4.974,3.227,7.795,3.227
			c2.82,0,5.642-1.076,7.794-3.227l0.005-0.008C56.371,224.68,56.369,217.705,52.066,213.4z"/>
		<path opacity="0.1412" fill="#75A2F2" enable-background="new    " d="M99.083,3.127c-0.001,0.006-0.003,0.012-0.004,0.02
			c-0.04,0.135-0.095,0.268-0.141,0.402c-0.412,1.217-1.03,2.377-1.877,3.416c-0.071,0.086-0.152,0.166-0.226,0.25
			c-0.172,0.197-0.342,0.398-0.531,0.588L104.105,0h-4.573C99.532,1.055,99.382,2.107,99.083,3.127z"/>
		<path opacity="0.1412" fill="#75A2F2" enable-background="new    " d="M96.834,7.215c0.073-0.084,0.155-0.164,0.226-0.25
			C96.989,7.051,96.908,7.131,96.834,7.215z"/>
		<path opacity="0.1412" fill="#75A2F2" enable-background="new    " d="M96.834,7.215c0.073-0.084,0.155-0.164,0.226-0.25
			C96.989,7.051,96.908,7.131,96.834,7.215z"/>
		<path opacity="0.1412" fill="#75A2F2" enable-background="new    " d="M98.937,3.549c0.046-0.135,0.101-0.268,0.141-0.402
			C99.038,3.281,98.983,3.414,98.937,3.549z"/>
		<path opacity="0.1412" fill="#75A2F2" enable-background="new    " d="M98.937,3.549c0.046-0.135,0.101-0.268,0.141-0.402
			C99.038,3.281,98.983,3.414,98.937,3.549z"/>
		<path opacity="0.1412" fill="#75A2F2" enable-background="new    " d="M99.083,3.127c0.299-1.02,0.45-2.072,0.449-3.127l0,0
			C99.532,1.055,99.382,2.107,99.083,3.127z"/>
		<path opacity="0.1412" fill="#75A2F2" enable-background="new    " d="M99.083,3.127c0.299-1.02,0.45-2.072,0.449-3.127l0,0
			C99.532,1.055,99.382,2.107,99.083,3.127z"/>
		<path opacity="0.1412" fill="#75A2F2" enable-background="new    " d="M96.834,7.215c-0.173,0.197-0.343,0.398-0.531,0.588l0,0
			C96.493,7.613,96.662,7.412,96.834,7.215z"/>
		<path opacity="0.1412" fill="#75A2F2" enable-background="new    " d="M96.834,7.215c-0.173,0.197-0.343,0.398-0.531,0.588l0,0
			C96.493,7.613,96.662,7.412,96.834,7.215z"/>
		<path opacity="0.1412" fill="#75A2F2" enable-background="new    " d="M81.254,8.289c-0.183-0.158-0.367-0.312-0.541-0.486l0,0
			C80.888,7.977,81.072,8.131,81.254,8.289z"/>
		<path opacity="0.1412" fill="#75A2F2" enable-background="new    " d="M81.254,8.289c-0.183-0.158-0.367-0.312-0.541-0.486l0,0
			C80.888,7.977,81.072,8.131,81.254,8.289z"/>
		<path opacity="0.1412" fill="#75A2F2" enable-background="new    " d="M93.635,9.77c0.117-0.062,0.227-0.137,0.342-0.201
			C93.862,9.633,93.751,9.709,93.635,9.77z"/>
		<path opacity="0.1412" fill="#75A2F2" enable-background="new    " d="M93.635,9.77c0.117-0.062,0.227-0.137,0.342-0.201
			C93.862,9.633,93.751,9.709,93.635,9.77z"/>
		<path opacity="0.1412" fill="#75A2F2" enable-background="new    " d="M81.551,8.559c0.472,0.385,0.973,0.715,1.489,1.01
			C82.525,9.273,82.023,8.943,81.551,8.559z"/>
		<path opacity="0.1412" fill="#75A2F2" enable-background="new    " d="M81.551,8.559c0.472,0.385,0.973,0.715,1.489,1.01
			C82.525,9.273,82.023,8.943,81.551,8.559z"/>
		<path opacity="0.1412" fill="#75A2F2" enable-background="new    " d="M99.078,3.146c0.001-0.008,0.003-0.014,0.004-0.02
			C99.081,3.133,99.08,3.139,99.078,3.146z"/>
		<path opacity="0.1412" fill="#75A2F2" enable-background="new    " d="M99.078,3.146c0.001-0.008,0.003-0.014,0.004-0.02
			C99.081,3.133,99.08,3.139,99.078,3.146z"/>
		<path opacity="0.1412" fill="#75A2F2" enable-background="new    " d="M83.382,9.77c0.045,0.025,0.094,0.043,0.14,0.066
			C83.476,9.812,83.428,9.795,83.382,9.77z"/>
		<path opacity="0.1412" fill="#75A2F2" enable-background="new    " d="M83.382,9.77c0.045,0.025,0.094,0.043,0.14,0.066
			C83.476,9.812,83.428,9.795,83.382,9.77z"/>
		<path opacity="0.1412" fill="#75A2F2" enable-background="new    " d="M88.508,11.031c1.713,0,3.423-0.404,4.986-1.195
			C91.931,10.627,90.221,11.031,88.508,11.031z"/>
		<path opacity="0.1412" fill="#75A2F2" enable-background="new    " d="M88.508,11.031c1.713,0,3.423-0.404,4.986-1.195
			C91.931,10.627,90.221,11.031,88.508,11.031z"/>
		<path opacity="0.1412" fill="#75A2F2" enable-background="new    " d="M97.06,6.965c0.847-1.039,1.465-2.199,1.877-3.416
			C98.525,4.764,97.907,5.926,97.06,6.965z"/>
		<path opacity="0.1412" fill="#75A2F2" enable-background="new    " d="M97.06,6.965c0.847-1.039,1.465-2.199,1.877-3.416
			C98.525,4.764,97.907,5.926,97.06,6.965z"/>
		<path opacity="0.1412" fill="#75A2F2" enable-background="new    " d="M80.713,7.803c0.174,0.174,0.358,0.328,0.541,0.486
			c0.1,0.09,0.195,0.186,0.297,0.27c0.472,0.385,0.974,0.715,1.489,1.01c0.114,0.064,0.225,0.141,0.342,0.201
			c0.045,0.025,0.094,0.043,0.14,0.066c1.563,0.791,3.274,1.195,4.986,1.195s3.423-0.404,4.986-1.195
			c0.046-0.023,0.094-0.041,0.14-0.066c0.116-0.061,0.227-0.137,0.342-0.201c0.831-0.477,1.618-1.057,2.327-1.766
			c0.188-0.189,0.358-0.391,0.531-0.588c0.073-0.084,0.155-0.164,0.226-0.25c0.847-1.039,1.465-2.201,1.877-3.416
			c0.046-0.135,0.101-0.268,0.141-0.402c0.001-0.008,0.003-0.014,0.004-0.02c0.299-1.02,0.45-2.072,0.449-3.127H77.485
			C77.484,2.822,78.56,5.646,80.713,7.803z"/>
		<path opacity="0.1412" fill="#75A2F2" enable-background="new    " d="M80.713,7.803c0.174,0.174,0.358,0.328,0.541,0.486
			c0.1,0.09,0.195,0.186,0.297,0.27c0.472,0.385,0.974,0.715,1.489,1.01c0.114,0.064,0.225,0.141,0.342,0.201
			c0.045,0.025,0.094,0.043,0.14,0.066c1.563,0.791,3.274,1.195,4.986,1.195s3.423-0.404,4.986-1.195
			c0.046-0.023,0.094-0.041,0.14-0.066c0.116-0.061,0.227-0.137,0.342-0.201c0.831-0.477,1.618-1.057,2.327-1.766
			c0.188-0.189,0.358-0.391,0.531-0.588c0.073-0.084,0.155-0.164,0.226-0.25c0.847-1.039,1.465-2.201,1.877-3.416
			c0.046-0.135,0.101-0.268,0.141-0.402c0.001-0.008,0.003-0.014,0.004-0.02c0.299-1.02,0.45-2.072,0.449-3.127H77.485
			C77.484,2.822,78.56,5.646,80.713,7.803z"/>
		<path opacity="0.1412" fill="#75A2F2" enable-background="new    " d="M80.713,7.803c0.174,0.174,0.358,0.328,0.541,0.486
			c0.1,0.09,0.195,0.186,0.297,0.27c0.472,0.385,0.974,0.715,1.489,1.01c0.114,0.064,0.225,0.141,0.342,0.201
			c0.045,0.025,0.094,0.043,0.14,0.066c1.563,0.791,3.274,1.195,4.986,1.195s3.423-0.404,4.986-1.195
			c0.046-0.023,0.094-0.041,0.14-0.066c0.116-0.061,0.227-0.137,0.342-0.201c0.831-0.477,1.618-1.057,2.327-1.766
			c0.188-0.189,0.358-0.391,0.531-0.588c0.073-0.084,0.155-0.164,0.226-0.25c0.847-1.039,1.465-2.201,1.877-3.416
			c0.046-0.135,0.101-0.268,0.141-0.402c0.001-0.008,0.003-0.014,0.004-0.02c0.299-1.02,0.45-2.072,0.449-3.127H77.485
			C77.484,2.822,78.56,5.646,80.713,7.803z"/>
		<path opacity="0.1412" fill="#75A2F2" enable-background="new    " d="M161.395,44.244l7.793-7.795
			c4.307-4.305,11.285-4.305,15.59,0l-14.323-14.322l-15.591,15.588L161.395,44.244z"/>
		<path opacity="0.1412" fill="#75A2F2" enable-background="new    " d="M148.336,0.008l-7.794,7.795l0,0l0,0
			c-0.709,0.709-1.496,1.291-2.327,1.766c-0.115,0.064-0.226,0.141-0.342,0.201c-0.046,0.025-0.094,0.043-0.141,0.066
			c-1.563,0.791-3.273,1.195-4.986,1.195c-1.712,0-3.423-0.404-4.986-1.195c-0.046-0.023-0.094-0.041-0.14-0.066
			c-0.116-0.062-0.227-0.137-0.342-0.201c-0.515-0.295-1.017-0.625-1.489-1.01c-0.103-0.084-0.197-0.18-0.297-0.27
			c-0.18-0.156-0.363-0.311-0.535-0.482l14.319,14.32l15.589-15.592L148.336,0.008z"/>
		<path opacity="0.1412" fill="#75A2F2" enable-background="new    " d="M188.007,44.244c0,2.822-1.077,5.643-3.228,7.795
			C186.93,49.887,188.007,47.066,188.007,44.244z"/>
		<path opacity="0.1412" fill="#75A2F2" enable-background="new    " d="M125.492,8.289c0.1,0.09,0.194,0.186,0.297,0.27
			C125.686,8.475,125.591,8.379,125.492,8.289z"/>
		<path opacity="0.1412" fill="#75A2F2" enable-background="new    " d="M125.492,8.289c0.1,0.09,0.194,0.186,0.297,0.27
			C125.686,8.475,125.591,8.379,125.492,8.289z"/>
		<path opacity="0.1412" fill="#75A2F2" enable-background="new    " d="M137.732,9.836c0.046-0.023,0.095-0.041,0.141-0.066
			C137.827,9.795,137.778,9.812,137.732,9.836z"/>
		<path opacity="0.1412" fill="#75A2F2" enable-background="new    " d="M137.732,9.836c0.046-0.023,0.095-0.041,0.141-0.066
			C137.827,9.795,137.778,9.812,137.732,9.836z"/>
		<path opacity="0.1412" fill="#75A2F2" enable-background="new    " d="M140.541,7.803c-0.709,0.709-1.496,1.289-2.327,1.766
			C139.045,9.094,139.832,8.512,140.541,7.803L140.541,7.803z"/>
		<path opacity="0.1412" fill="#75A2F2" enable-background="new    " d="M140.541,7.803c-0.709,0.709-1.496,1.289-2.327,1.766
			C139.045,9.094,139.832,8.512,140.541,7.803L140.541,7.803z"/>
		<path opacity="0.1412" fill="#75A2F2" enable-background="new    " d="M127.278,9.568c0.115,0.064,0.226,0.141,0.342,0.201
			C127.503,9.709,127.393,9.633,127.278,9.568z"/>
		<path opacity="0.1412" fill="#75A2F2" enable-background="new    " d="M127.278,9.568c0.115,0.064,0.226,0.141,0.342,0.201
			C127.503,9.709,127.393,9.633,127.278,9.568z"/>
		<path opacity="0.1412" fill="#75A2F2" enable-background="new    " d="M127.76,9.836c1.563,0.791,3.274,1.195,4.986,1.195
			C131.034,11.031,129.323,10.627,127.76,9.836z"/>
		<path opacity="0.1412" fill="#75A2F2" enable-background="new    " d="M127.76,9.836c1.563,0.791,3.274,1.195,4.986,1.195
			C131.034,11.031,129.323,10.627,127.76,9.836z"/>
		<path opacity="0.1412" fill="#75A2F2" enable-background="new    " d="M148.336,44.244l-7.794,7.795
			c-2.153,2.152-4.974,3.23-7.795,3.23c-2.821,0-5.642-1.078-7.794-3.23c-3.767-3.768-4.238-9.58-1.413-13.859
			c-2.825,4.279-2.354,10.094,1.412,13.859l14.325,14.324l15.589-15.59L148.336,44.244z"/>
		<path opacity="0.1412" fill="#75A2F2" enable-background="new    " d="M161.395,88.482l7.795-7.795
			c4.306-4.305,11.285-4.305,15.59,0l-14.324-14.324l-15.59,15.59L161.395,88.482z"/>
		<path opacity="0.1412" fill="#75A2F2" enable-background="new    " d="M123.539,38.18c0.403-0.611,0.875-1.191,1.413-1.73
			C124.414,36.988,123.942,37.566,123.539,38.18z"/>
		<path opacity="0.1412" fill="#75A2F2" enable-background="new    " d="M165.961,132.721c0-2.117,0.605-4.232,1.814-6.068
			c0.404-0.607,0.875-1.189,1.412-1.729l7.795-7.795l-6.528-6.527l-15.591,15.59l14.324,14.324c0.002,0,0.004,0.002,0.006,0.004
			l-0.006-0.006C167.037,138.361,165.961,135.539,165.961,132.721z"/>
		<path opacity="0.1412" fill="#75A2F2" enable-background="new    " d="M148.336,88.482l-7.794,7.795
			c-2.153,2.152-4.974,3.23-7.795,3.23c-2.821,0-5.642-1.078-7.794-3.23l14.323,14.324l15.589-15.59L148.336,88.482z"/>
		<path opacity="0.1412" fill="#75A2F2" enable-background="new    " d="M138.214,142.279c-0.115,0.064-0.226,0.143-0.342,0.201
			c-0.046,0.025-0.094,0.041-0.141,0.066c-1.563,0.793-3.273,1.193-4.986,1.193c-1.712,0-3.423-0.4-4.986-1.193
			c-0.046-0.025-0.094-0.041-0.14-0.066c-0.116-0.061-0.227-0.137-0.342-0.201c-0.515-0.295-1.017-0.623-1.489-1.01
			c-0.103-0.082-0.197-0.18-0.297-0.268c-0.182-0.16-0.366-0.314-0.54-0.488l-7.795-7.795l-28.648,28.648l7.795,7.795
			c4.305,4.307,4.304,11.287,0,15.592l-0.005,0.006c0.001-0.002,0.004-0.004,0.005-0.006l44.238-44.24l0,0
			C139.832,141.223,139.045,141.805,138.214,142.279z"/>
		<path opacity="0.1412" fill="#75A2F2" enable-background="new    " d="M96.303,184.754c4.305-4.305,4.306-11.285,0-15.592
			C100.608,173.469,100.608,180.447,96.303,184.754z"/>
		<path opacity="0.1412" fill="#75A2F2" enable-background="new    " d="M96.303,184.754c4.305-4.305,4.306-11.285,0-15.592
			C100.608,173.469,100.608,180.447,96.303,184.754z"/>
		<path opacity="0.1412" fill="#75A2F2" enable-background="new    " d="M80.709,169.17l0.005-0.008
			c4.306-4.303,11.286-4.303,15.59,0l-7.795-7.795l-7.795,7.795C80.712,169.166,80.71,169.168,80.709,169.17z"/>
		<path opacity="0.1412" fill="#75A2F2" enable-background="new    " d="M80.709,169.17l0.005-0.008
			c4.306-4.303,11.286-4.303,15.59,0l-7.795-7.795l-7.795,7.795C80.712,169.166,80.71,169.168,80.709,169.17z"/>
		<path opacity="0.1412" fill="#75A2F2" enable-background="new    " d="M138.214,142.279c-0.115,0.064-0.226,0.143-0.342,0.201
			C137.989,142.422,138.1,142.346,138.214,142.279z"/>
		<path opacity="0.1412" fill="#75A2F2" enable-background="new    " d="M138.214,142.279c-0.115,0.064-0.226,0.143-0.342,0.201
			C137.989,142.422,138.1,142.346,138.214,142.279z"/>
		<path opacity="0.1412" fill="#75A2F2" enable-background="new    " d="M137.732,142.547c-1.563,0.795-3.273,1.195-4.986,1.195
			C134.459,143.742,136.169,143.342,137.732,142.547z"/>
		<path opacity="0.1412" fill="#75A2F2" enable-background="new    " d="M137.732,142.547c-1.563,0.795-3.273,1.195-4.986,1.195
			C134.459,143.742,136.169,143.342,137.732,142.547z"/>
		<path opacity="0.1412" fill="#75A2F2" enable-background="new    " d="M127.76,142.547c-0.046-0.023-0.094-0.041-0.14-0.064
			C127.666,142.506,127.714,142.521,127.76,142.547z"/>
		<path opacity="0.1412" fill="#75A2F2" enable-background="new    " d="M127.76,142.547c-0.046-0.023-0.094-0.041-0.14-0.064
			C127.666,142.506,127.714,142.521,127.76,142.547z"/>
		<path opacity="0.1412" fill="#75A2F2" enable-background="new    " d="M125.492,141.002c-0.183-0.158-0.367-0.314-0.541-0.488
			c-4.305-4.305-4.305-11.283,0-15.588l0,0l-7.794,7.795l7.795,7.795C125.126,140.688,125.31,140.844,125.492,141.002z"/>
		<path opacity="0.1412" fill="#75A2F2" enable-background="new    " d="M125.492,141.002c-0.183-0.158-0.367-0.314-0.541-0.488
			c-4.305-4.305-4.305-11.283,0-15.588l0,0l-7.794,7.795l7.795,7.795C125.126,140.688,125.31,140.844,125.492,141.002z"/>
		<path opacity="0.1412" fill="#75A2F2" enable-background="new    " d="M127.278,142.279c-0.515-0.295-1.017-0.623-1.489-1.01
			C126.261,141.656,126.763,141.984,127.278,142.279z"/>
		<path opacity="0.1412" fill="#75A2F2" enable-background="new    " d="M127.278,142.279c-0.515-0.295-1.017-0.623-1.489-1.01
			C126.261,141.656,126.763,141.984,127.278,142.279z"/>
		<path opacity="0.1412" fill="#75A2F2" enable-background="new    " d="M88.508,187.982c2.819,0,5.638-1.076,7.79-3.223
			l0.005-0.006C94.151,186.906,91.329,187.982,88.508,187.982z"/>
		<path opacity="0.1412" fill="#75A2F2" enable-background="new    " d="M88.508,187.982c2.819,0,5.638-1.076,7.79-3.223
			l0.005-0.006C94.151,186.906,91.329,187.982,88.508,187.982z"/>
		<path opacity="0.1412" fill="#75A2F2" enable-background="new    " d="M80.714,169.162l-0.005,0.008
			c-4.3,4.307-4.298,11.281,0.005,15.584c2.152,2.152,4.974,3.229,7.794,3.229c2.82,0,5.643-1.076,7.795-3.229
			c4.305-4.307,4.305-11.285,0-15.592C92,164.859,85.02,164.859,80.714,169.162z"/>
		<path opacity="0.1412" fill="#75A2F2" enable-background="new    " d="M80.714,169.162l-0.005,0.008
			c-4.3,4.307-4.298,11.281,0.005,15.584c2.152,2.152,4.974,3.229,7.794,3.229c2.82,0,5.643-1.076,7.795-3.229
			c4.305-4.307,4.305-11.285,0-15.592C92,164.859,85.02,164.859,80.714,169.162z"/>
		<path opacity="0.1412" fill="#75A2F2" enable-background="new    " d="M80.714,169.162l-0.005,0.008
			c-4.3,4.307-4.298,11.281,0.005,15.584c2.152,2.152,4.974,3.229,7.794,3.229c2.82,0,5.643-1.076,7.795-3.229
			c4.305-4.307,4.305-11.285,0-15.592C92,164.859,85.02,164.859,80.714,169.162z"/>
		<path opacity="0.1412" fill="#75A2F2" enable-background="new    " d="M96.309,228.984l44.232-44.23
			c4.305-4.307,4.305-11.285,0-15.592c-4.305-4.303-11.284-4.303-15.59,0l-36.443,36.443l7.795,7.795
			C100.606,217.705,100.607,224.68,96.309,228.984z"/>
		<path opacity="0.1412" fill="#75A2F2" enable-background="new    " d="M80.709,228.984c0.001,0.002,0.003,0.006,0.005,0.008
			c2.153,2.152,4.974,3.227,7.795,3.227c-2.821,0-5.642-1.074-7.794-3.227L80.709,228.984z"/>
		<path opacity="0.1412" fill="#75A2F2" enable-background="new    " d="M80.709,228.984l0.005,0.008
			c2.152,2.152,4.974,3.227,7.794,3.227c2.82,0,5.643-1.076,7.795-3.227l0.005-0.008c4.299-4.305,4.298-11.279-0.005-15.584
			l-7.795-7.795l-7.794,7.795C76.411,217.705,76.41,224.68,80.709,228.984z"/>
		<path opacity="0.1412" fill="#75A2F2" enable-background="new    " d="M80.709,228.984l0.005,0.008
			c2.152,2.152,4.974,3.227,7.794,3.227c2.82,0,5.643-1.076,7.795-3.227l0.005-0.008c4.299-4.305,4.298-11.279-0.005-15.584
			l-7.795-7.795l-7.794,7.795C76.411,217.705,76.41,224.68,80.709,228.984z"/>
		<rect x="124.954" y="7.801" opacity="0.1412" fill="#75A2F2" enable-background="new    " width="0" height="0.008"/>
		<polygon opacity="0.1412" fill="#75A2F2" enable-background="new    " points="148.342,0 148.331,0 148.336,0.008 		"/>
		<path opacity="0.1412" fill="#75A2F2" enable-background="new    " d="M124.952,7.803c0.001,0.002,0.003,0.002,0.005,0.004
			L124.952,7.803c-2.154-2.154-3.23-4.98-3.229-7.803l0,0C121.721,2.822,122.797,5.646,124.952,7.803z"/>
		<path opacity="0.1412" fill="#75A2F2" enable-background="new    " d="M124.952,7.803c0.001,0.002,0.003,0.002,0.005,0.004
			L124.952,7.803c-2.154-2.154-3.23-4.98-3.229-7.803l0,0C121.721,2.822,122.797,5.646,124.952,7.803z"/>
		<path opacity="0.1412" fill="#75A2F2" enable-background="new    " d="M137.873,9.77c0.116-0.062,0.227-0.137,0.342-0.201
			C138.1,9.633,137.989,9.709,137.873,9.77z"/>
		<path opacity="0.1412" fill="#75A2F2" enable-background="new    " d="M137.873,9.77c0.116-0.062,0.227-0.137,0.342-0.201
			C138.1,9.633,137.989,9.709,137.873,9.77z"/>
		<path opacity="0.1412" fill="#75A2F2" enable-background="new    " d="M140.541,7.803C140.542,7.803,140.542,7.803,140.541,7.803
			l7.795-7.795L148.331,0h-4.562C143.771,2.822,142.695,5.646,140.541,7.803z"/>
		<path opacity="0.1412" fill="#75A2F2" enable-background="new    " d="M140.541,7.803C140.542,7.803,140.542,7.803,140.541,7.803
			l7.795-7.795L148.331,0h-4.562C143.771,2.822,142.695,5.646,140.541,7.803z"/>
		<path opacity="0.1412" fill="#75A2F2" enable-background="new    " d="M125.789,8.559c0.472,0.385,0.974,0.715,1.489,1.01
			C126.763,9.273,126.261,8.943,125.789,8.559z"/>
		<path opacity="0.1412" fill="#75A2F2" enable-background="new    " d="M125.789,8.559c0.472,0.385,0.974,0.715,1.489,1.01
			C126.763,9.273,126.261,8.943,125.789,8.559z"/>
		<path opacity="0.1412" fill="#75A2F2" enable-background="new    " d="M132.746,11.031c1.713,0,3.423-0.404,4.986-1.195
			C136.169,10.627,134.459,11.031,132.746,11.031z"/>
		<path opacity="0.1412" fill="#75A2F2" enable-background="new    " d="M132.746,11.031c1.713,0,3.423-0.404,4.986-1.195
			C136.169,10.627,134.459,11.031,132.746,11.031z"/>
		<path opacity="0.1412" fill="#75A2F2" enable-background="new    " d="M124.957,7.807L124.957,7.807
			c0.172,0.172,0.355,0.326,0.535,0.482C125.312,8.133,125.128,7.979,124.957,7.807z"/>
		<path opacity="0.1412" fill="#75A2F2" enable-background="new    " d="M124.957,7.807L124.957,7.807
			c0.172,0.172,0.355,0.326,0.535,0.482C125.312,8.133,125.128,7.979,124.957,7.807z"/>
		<path opacity="0.1412" fill="#75A2F2" enable-background="new    " d="M127.62,9.77c0.046,0.025,0.094,0.043,0.14,0.066
			C127.714,9.812,127.666,9.795,127.62,9.77z"/>
		<path opacity="0.1412" fill="#75A2F2" enable-background="new    " d="M127.62,9.77c0.046,0.025,0.094,0.043,0.14,0.066
			C127.714,9.812,127.666,9.795,127.62,9.77z"/>
		<path opacity="0.1412" fill="#75A2F2" enable-background="new    " d="M124.952,7.803l0.005,0.004
			c0.172,0.172,0.355,0.326,0.535,0.482c0.1,0.09,0.194,0.186,0.297,0.27c0.472,0.385,0.974,0.715,1.489,1.01
			c0.115,0.064,0.226,0.141,0.342,0.201c0.046,0.025,0.094,0.043,0.14,0.066c1.563,0.791,3.274,1.195,4.986,1.195
			s3.423-0.404,4.986-1.195c0.046-0.023,0.095-0.041,0.141-0.066c0.116-0.061,0.227-0.137,0.342-0.201
			c0.831-0.477,1.617-1.057,2.327-1.766c2.153-2.154,3.229-4.98,3.229-7.803h-22.047C121.721,2.822,122.798,5.646,124.952,7.803z"/>
		<path opacity="0.1412" fill="#75A2F2" enable-background="new    " d="M124.952,7.803l0.005,0.004
			c0.172,0.172,0.355,0.326,0.535,0.482c0.1,0.09,0.194,0.186,0.297,0.27c0.472,0.385,0.974,0.715,1.489,1.01
			c0.115,0.064,0.226,0.141,0.342,0.201c0.046,0.025,0.094,0.043,0.14,0.066c1.563,0.791,3.274,1.195,4.986,1.195
			s3.423-0.404,4.986-1.195c0.046-0.023,0.095-0.041,0.141-0.066c0.116-0.061,0.227-0.137,0.342-0.201
			c0.831-0.477,1.617-1.057,2.327-1.766c2.153-2.154,3.229-4.98,3.229-7.803h-22.047C121.721,2.822,122.798,5.646,124.952,7.803z"/>
		<path opacity="0.1412" fill="#75A2F2" enable-background="new    " d="M124.952,7.803l0.005,0.004
			c0.172,0.172,0.355,0.326,0.535,0.482c0.1,0.09,0.194,0.186,0.297,0.27c0.472,0.385,0.974,0.715,1.489,1.01
			c0.115,0.064,0.226,0.141,0.342,0.201c0.046,0.025,0.094,0.043,0.14,0.066c1.563,0.791,3.274,1.195,4.986,1.195
			s3.423-0.404,4.986-1.195c0.046-0.023,0.095-0.041,0.141-0.066c0.116-0.061,0.227-0.137,0.342-0.201
			c0.831-0.477,1.617-1.057,2.327-1.766c2.153-2.154,3.229-4.98,3.229-7.803h-22.047C121.721,2.822,122.798,5.646,124.952,7.803z"/>
		<path opacity="0.1412" fill="#75A2F2" enable-background="new    " d="M170.455,22.127l14.324-14.324
			c-2.153,2.15-4.975,3.229-7.795,3.229c-2.821,0-5.643-1.078-7.795-3.229c-2.153-2.154-3.23-4.98-3.229-7.803H161.4l-6.537,6.535
			L170.455,22.127z"/>
		<path opacity="0.1412" fill="#75A2F2" enable-background="new    " d="M140.542,36.449l7.794,7.795l6.529-6.529l-15.589-15.588
			l-14.324,14.322C129.257,32.146,136.237,32.146,140.542,36.449z"/>
		
			<rect x="143.845" y="11.101" transform="matrix(-0.7071 -0.7071 0.7071 -0.7071 248.7334 147.2787)" opacity="0.1412" fill="#75A2F2" enable-background="new    " width="22.047" height="22.047"/>
		
			<rect x="143.845" y="11.101" transform="matrix(-0.7071 -0.7071 0.7071 -0.7071 248.7334 147.2787)" opacity="0.1412" fill="#75A2F2" enable-background="new    " width="22.047" height="22.047"/>
		<path opacity="0.1412" fill="#75A2F2" enable-background="new    " d="M124.952,52.039c2.152,2.152,4.974,3.23,7.794,3.23
			c2.821,0,5.643-1.078,7.795-3.23l7.794-7.795l-7.794-7.795c-4.305-4.303-11.284-4.305-15.59,0
			c-0.538,0.539-1.009,1.117-1.413,1.73C120.714,42.459,121.185,48.271,124.952,52.039z"/>
		<path opacity="0.1412" fill="#75A2F2" enable-background="new    " d="M124.952,52.039c2.152,2.152,4.974,3.23,7.794,3.23
			c2.821,0,5.643-1.078,7.795-3.23l7.794-7.795l-7.794-7.795c-4.305-4.303-11.284-4.305-15.59,0
			c-0.538,0.539-1.009,1.117-1.413,1.73C120.714,42.459,121.185,48.271,124.952,52.039z"/>
		<path opacity="0.1412" fill="#75A2F2" enable-background="new    " d="M140.541,80.688l7.795,7.797l6.529-6.531l-15.589-15.588
			l-14.325,14.322C129.257,76.383,136.236,76.385,140.541,80.688z"/>
		<path opacity="0.1412" fill="#75A2F2" enable-background="new    " d="M186.191,38.18c1.209,1.834,1.814,3.949,1.814,6.064
			C188.007,42.129,187.4,40.014,186.191,38.18z"/>
		<path opacity="0.1412" fill="#75A2F2" enable-background="new    " d="M169.189,52.039l-7.793-7.795l-6.53,6.529l15.59,15.59
			l14.323-14.324c-2.152,2.152-4.973,3.23-7.795,3.23C174.164,55.27,171.341,54.191,169.189,52.039z"/>
		<path opacity="0.1412" fill="#75A2F2" enable-background="new    " d="M184.779,36.449c0.537,0.539,1.009,1.117,1.412,1.73
			C185.788,37.566,185.316,36.988,184.779,36.449z"/>
		<path opacity="0.1412" fill="#75A2F2" enable-background="new    " d="M169.189,36.449l-7.793,7.795l7.793,7.795
			c2.152,2.152,4.974,3.23,7.795,3.23c2.82,0,5.643-1.078,7.795-3.23c2.15-2.152,3.228-4.973,3.228-7.795
			c0-2.115-0.604-4.23-1.815-6.064c-0.403-0.611-0.875-1.191-1.412-1.73C180.473,32.146,173.494,32.145,169.189,36.449z"/>
		<path opacity="0.1412" fill="#75A2F2" enable-background="new    " d="M169.189,36.449l-7.793,7.795l7.793,7.795
			c2.152,2.152,4.974,3.23,7.795,3.23c2.82,0,5.643-1.078,7.795-3.23c2.15-2.152,3.228-4.973,3.228-7.795
			c0-2.115-0.604-4.23-1.815-6.064c-0.403-0.611-0.875-1.191-1.412-1.73C180.473,32.146,173.494,32.145,169.189,36.449z"/>
		
			<rect x="143.846" y="55.339" transform="matrix(-0.7072 -0.7071 0.7071 -0.7072 217.4627 222.7926)" opacity="0.1412" fill="#75A2F2" enable-background="new    " width="22.046" height="22.047"/>
		
			<rect x="143.846" y="55.339" transform="matrix(-0.7072 -0.7071 0.7071 -0.7072 217.4627 222.7926)" opacity="0.1412" fill="#75A2F2" enable-background="new    " width="22.046" height="22.047"/>
		<path opacity="0.1412" fill="#75A2F2" enable-background="new    " d="M140.542,96.277l7.794-7.795l-7.795-7.795
			c-4.305-4.305-11.284-4.305-15.59,0c-4.305,4.305-4.305,11.285,0,15.59c2.152,2.152,4.974,3.23,7.794,3.23
			C135.567,99.508,138.389,98.432,140.542,96.277z"/>
		<path opacity="0.1412" fill="#75A2F2" enable-background="new    " d="M140.542,96.277l7.794-7.795l-7.795-7.795
			c-4.305-4.305-11.284-4.305-15.59,0c-4.305,4.305-4.305,11.285,0,15.59c2.152,2.152,4.974,3.23,7.794,3.23
			C135.567,99.508,138.389,98.432,140.542,96.277z"/>
		<path opacity="0.1412" fill="#75A2F2" enable-background="new    " d="M169.189,96.277l-7.795-7.795l-6.529,6.529l15.59,15.59
			l14.324-14.324c-2.153,2.152-4.975,3.23-7.795,3.23C174.163,99.508,171.341,98.432,169.189,96.277z"/>
		<path opacity="0.1412" fill="#75A2F2" enable-background="new    " d="M132.746,117.131l7.795,7.793
			c4.305,4.305,4.305,11.285,0,15.59l0,0l14.322-14.322l-15.589-15.59L132.746,117.131z"/>
		<path opacity="0.1412" fill="#75A2F2" enable-background="new    " d="M124.952,124.926c4.306-4.307,11.285-4.307,15.589-0.002
			l-7.795-7.793L124.952,124.926C124.952,124.924,124.952,124.924,124.952,124.926z"/>
		<path opacity="0.1412" fill="#75A2F2" enable-background="new    " d="M124.952,124.926c4.306-4.307,11.285-4.307,15.589-0.002
			l-7.795-7.793L124.952,124.926C124.952,124.924,124.952,124.924,124.952,124.926z"/>
		<path opacity="0.1412" fill="#75A2F2" enable-background="new    " d="M169.189,80.688l-7.795,7.797l7.795,7.795
			c2.152,2.152,4.974,3.229,7.795,3.229c2.82,0,5.643-1.076,7.795-3.229c4.304-4.307,4.304-11.285,0-15.592
			C180.473,76.383,173.494,76.385,169.189,80.688z"/>
		<path opacity="0.1412" fill="#75A2F2" enable-background="new    " d="M169.189,80.688l-7.795,7.797l7.795,7.795
			c2.152,2.152,4.974,3.229,7.795,3.229c2.82,0,5.643-1.076,7.795-3.229c4.304-4.307,4.304-11.285,0-15.592
			C180.473,76.383,173.494,76.385,169.189,80.688z"/>
		
			<rect x="143.839" y="99.574" transform="matrix(-0.7071 0.7071 -0.7071 -0.7071 342.5699 79.295)" opacity="0.1412" fill="#75A2F2" enable-background="new    " width="22.047" height="22.047"/>
		
			<rect x="143.839" y="99.574" transform="matrix(-0.7071 0.7071 -0.7071 -0.7071 342.5699 79.295)" opacity="0.1412" fill="#75A2F2" enable-background="new    " width="22.047" height="22.047"/>
		<path opacity="0.1412" fill="#75A2F2" enable-background="new    " d="M127.62,142.48c-0.116-0.061-0.227-0.137-0.342-0.201
			C127.393,142.346,127.503,142.422,127.62,142.48z"/>
		<path opacity="0.1412" fill="#75A2F2" enable-background="new    " d="M127.62,142.48c-0.116-0.061-0.227-0.137-0.342-0.201
			C127.393,142.346,127.503,142.422,127.62,142.48z"/>
		<path opacity="0.1412" fill="#75A2F2" enable-background="new    " d="M132.746,143.742c-1.712,0-3.423-0.4-4.986-1.195
			C129.323,143.342,131.034,143.742,132.746,143.742z"/>
		<path opacity="0.1412" fill="#75A2F2" enable-background="new    " d="M132.746,143.742c-1.712,0-3.423-0.4-4.986-1.195
			C129.323,143.342,131.034,143.742,132.746,143.742z"/>
		<path opacity="0.1412" fill="#75A2F2" enable-background="new    " d="M125.789,141.271c-0.103-0.084-0.197-0.18-0.297-0.27
			C125.591,141.092,125.686,141.188,125.789,141.271z"/>
		<path opacity="0.1412" fill="#75A2F2" enable-background="new    " d="M125.789,141.271c-0.103-0.084-0.197-0.18-0.297-0.27
			C125.591,141.092,125.686,141.188,125.789,141.271z"/>
		<path opacity="0.1412" fill="#75A2F2" enable-background="new    " d="M137.873,142.48c-0.046,0.025-0.094,0.041-0.141,0.066
			C137.778,142.521,137.827,142.506,137.873,142.48z"/>
		<path opacity="0.1412" fill="#75A2F2" enable-background="new    " d="M137.873,142.48c-0.046,0.025-0.094,0.041-0.141,0.066
			C137.778,142.521,137.827,142.506,137.873,142.48z"/>
		<path opacity="0.1412" fill="#75A2F2" enable-background="new    " d="M138.214,142.279c0.831-0.475,1.617-1.057,2.327-1.766l0,0
			l0,0C139.832,141.223,139.045,141.805,138.214,142.279z"/>
		<path opacity="0.1412" fill="#75A2F2" enable-background="new    " d="M138.214,142.279c0.831-0.475,1.617-1.057,2.327-1.766l0,0
			l0,0C139.832,141.223,139.045,141.805,138.214,142.279z"/>
		<path opacity="0.1412" fill="#75A2F2" enable-background="new    " d="M124.952,124.926c-4.305,4.305-4.305,11.283,0,15.588
			c0.173,0.174,0.358,0.33,0.541,0.488c0.1,0.09,0.194,0.186,0.297,0.27c0.472,0.385,0.974,0.713,1.489,1.01
			c0.115,0.064,0.226,0.141,0.342,0.201c0.046,0.023,0.094,0.041,0.14,0.064c1.563,0.795,3.274,1.195,4.986,1.195
			s3.423-0.4,4.986-1.195c0.046-0.023,0.095-0.041,0.141-0.064c0.116-0.061,0.227-0.137,0.342-0.201
			c0.831-0.477,1.617-1.059,2.327-1.768c4.305-4.305,4.305-11.285,0-15.59C136.236,120.619,129.257,120.619,124.952,124.926z"/>
		<path opacity="0.1412" fill="#75A2F2" enable-background="new    " d="M124.952,124.926c-4.305,4.305-4.305,11.283,0,15.588
			c0.173,0.174,0.358,0.33,0.541,0.488c0.1,0.09,0.194,0.186,0.297,0.27c0.472,0.385,0.974,0.713,1.489,1.01
			c0.115,0.064,0.226,0.141,0.342,0.201c0.046,0.023,0.094,0.041,0.14,0.064c1.563,0.795,3.274,1.195,4.986,1.195
			s3.423-0.4,4.986-1.195c0.046-0.023,0.095-0.041,0.141-0.064c0.116-0.061,0.227-0.137,0.342-0.201
			c0.831-0.477,1.617-1.059,2.327-1.768c4.305-4.305,4.305-11.285,0-15.59C136.236,120.619,129.257,120.619,124.952,124.926z"/>
		<path opacity="0.1412" fill="#75A2F2" enable-background="new    " d="M124.952,124.926c-4.305,4.305-4.305,11.283,0,15.588
			c0.173,0.174,0.358,0.33,0.541,0.488c0.1,0.09,0.194,0.186,0.297,0.27c0.472,0.385,0.974,0.713,1.489,1.01
			c0.115,0.064,0.226,0.141,0.342,0.201c0.046,0.023,0.094,0.041,0.14,0.064c1.563,0.795,3.274,1.195,4.986,1.195
			s3.423-0.4,4.986-1.195c0.046-0.023,0.095-0.041,0.141-0.064c0.116-0.061,0.227-0.137,0.342-0.201
			c0.831-0.477,1.617-1.059,2.327-1.768c4.305-4.305,4.305-11.285,0-15.59C136.236,120.619,129.257,120.619,124.952,124.926z"/>
		<path opacity="0.1412" fill="#75A2F2" enable-background="new    " d="M192.572,132.721l-7.793,7.793
			c-2.153,2.152-4.975,3.229-7.795,3.229c-1.059,0-2.116-0.15-3.139-0.451c-1.701-0.506-3.307-1.43-4.65-2.771l14.318,14.32
			l15.59-15.592L192.572,132.721z"/>
		<path opacity="0.1412" fill="#75A2F2" enable-background="new    " d="M213.425,169.162l7.796-7.795l-6.529-6.527l-15.59,15.59
			l14.323,14.324C209.121,180.447,209.121,173.469,213.425,169.162z"/>
		<path opacity="0.1412" fill="#75A2F2" enable-background="new    " d="M167.775,126.652c0.404-0.609,0.875-1.189,1.412-1.729
			C168.65,125.463,168.18,126.043,167.775,126.652z"/>
		<path opacity="0.1412" fill="#75A2F2" enable-background="new    " d="M167.775,126.652c0.404-0.609,0.875-1.189,1.412-1.729
			C168.65,125.463,168.18,126.043,167.775,126.652z"/>
		<path opacity="0.1412" fill="#75A2F2" enable-background="new    " d="M169.189,140.514l0.004,0.006
			c1.345,1.342,2.949,2.266,4.65,2.77C172.141,142.783,170.534,141.857,169.189,140.514z"/>
		<path opacity="0.1412" fill="#75A2F2" enable-background="new    " d="M169.189,140.514l0.004,0.006
			c1.345,1.342,2.949,2.266,4.65,2.77C172.141,142.783,170.534,141.857,169.189,140.514z"/>
		<path opacity="0.1412" fill="#75A2F2" enable-background="new    " d="M165.961,132.721c0-2.117,0.605-4.234,1.814-6.068
			C166.566,128.486,165.961,130.604,165.961,132.721z"/>
		<path opacity="0.1412" fill="#75A2F2" enable-background="new    " d="M165.961,132.721c0-2.117,0.605-4.234,1.814-6.068
			C166.566,128.486,165.961,130.604,165.961,132.721z"/>
		<path opacity="0.1451" fill="#75A2F2" enable-background="new    " d="M176.982,187.982c-2.82,0-5.642-1.076-7.795-3.229
			l44.237,44.238c2.153,2.15,4.974,3.227,7.796,3.227c2.82,0,5.641-1.076,7.795-3.227c4.305-4.307,4.305-11.285,0-15.592
			l-36.443-36.441l-7.795,7.795C182.626,186.906,179.805,187.982,176.982,187.982z"/>
		<path opacity="0.1451" fill="#75A2F2" enable-background="new    " d="M165.961,176.959c0-2.469,0.823-4.938,2.471-6.957
			C166.784,172.021,165.961,174.49,165.961,176.959z"/>
		<path opacity="0.1451" fill="#75A2F2" enable-background="new    " d="M184.779,7.803l7.8-7.803h-4.572
			C188.008,2.822,186.934,5.646,184.779,7.803z"/>
		<path opacity="0.1412" fill="#75A2F2" enable-background="new    " d="M169.189,7.803c2.152,2.15,4.974,3.229,7.795,3.229
			c2.82,0,5.643-1.078,7.795-3.229c2.154-2.154,3.229-4.98,3.228-7.803h-22.046C165.958,2.822,167.035,5.646,169.189,7.803z"/>
		<path opacity="0.1451" fill="#75A2F2" enable-background="new    " d="M169.189,7.803c2.152,2.15,4.974,3.229,7.795,3.229
			c2.82,0,5.643-1.078,7.795-3.229c2.154-2.154,3.229-4.98,3.228-7.803h-22.046C165.958,2.822,167.035,5.646,169.189,7.803z"/>
		<path opacity="0.1451" fill="#75A2F2" enable-background="new    " d="M236.811,0.008l-7.795,7.795
			c-2.152,2.15-4.974,3.229-7.795,3.229c-2.82,0-5.643-1.078-7.795-3.229l14.324,14.324l15.59-15.592L236.811,0.008z"/>
		<path opacity="0.1451" fill="#75A2F2" enable-background="new    " d="M257.664,52.039c0.002,0.004,0.004,0.004,0.006,0.006
			L257.664,52.039c-4.305-4.305-4.305-11.283,0-15.59c4.307-4.305,11.285-4.305,15.59,0L258.93,22.127l-15.59,15.59L257.664,52.039z
			"/>
		<path opacity="0.1451" fill="#75A2F2" enable-background="new    " d="M254.436,88.482c0-2.82,1.076-5.643,3.229-7.795
			l7.795-7.795l-28.648-28.648l-7.795,7.795c-2.152,2.152-4.974,3.23-7.795,3.23c-2.82,0-5.643-1.078-7.795-3.23l44.238,44.238
			c-0.538-0.537-1.01-1.117-1.413-1.729C255.041,92.715,254.436,90.6,254.436,88.482z"/>
		<path opacity="0.1451" fill="#75A2F2" enable-background="new    " d="M213.425,52.039c-2.151-2.152-3.228-4.973-3.228-7.795
			C210.197,47.066,211.273,49.887,213.425,52.039z"/>
		<path opacity="0.1451" fill="#75A2F2" enable-background="new    " d="M184.784,124.93l7.788,7.791l36.443-36.441
			c4.305-4.307,4.305-11.285,0-15.592c-4.305-4.305-11.285-4.305-15.59,0l-36.441,36.441l7.795,7.795
			C184.781,124.926,184.781,124.928,184.784,124.93z"/>
		<path opacity="0.1412" fill="#75A2F2" enable-background="new    " d="M184.779,124.926l0.005,0.004
			C184.781,124.928,184.781,124.926,184.779,124.926l-7.795-7.797l-7.795,7.795C173.494,120.619,180.473,120.619,184.779,124.926z"
			/>
		<path opacity="0.1451" fill="#75A2F2" enable-background="new    " d="M184.779,124.926l0.005,0.004
			C184.781,124.928,184.781,124.926,184.779,124.926l-7.795-7.797l-7.795,7.795C173.494,120.619,180.473,120.619,184.779,124.926z"
			/>
		<path opacity="0.1412" fill="#75A2F2" enable-background="new    " d="M169.189,140.514c-2.151-2.152-3.229-4.975-3.229-7.793
			C165.961,135.539,167.037,138.361,169.189,140.514z"/>
		<path opacity="0.1451" fill="#75A2F2" enable-background="new    " d="M169.189,140.514c-2.151-2.152-3.229-4.975-3.229-7.793
			C165.961,135.539,167.037,138.361,169.189,140.514z"/>
		<path opacity="0.1412" fill="#75A2F2" enable-background="new    " d="M184.779,140.514l7.793-7.793l-7.788-7.791
			C189.083,129.234,189.081,136.211,184.779,140.514z"/>
		<path opacity="0.1451" fill="#75A2F2" enable-background="new    " d="M184.779,140.514l7.793-7.793l-7.788-7.791
			C189.083,129.234,189.081,136.211,184.779,140.514z"/>
		<path opacity="0.1412" fill="#75A2F2" enable-background="new    " d="M184.784,124.93l-0.005-0.004
			c-4.307-4.307-11.285-4.307-15.59-0.002c-0.539,0.539-1.01,1.119-1.414,1.729c-1.209,1.834-1.813,3.951-1.813,6.068
			c0,2.818,1.076,5.641,3.228,7.793c1.346,1.346,2.953,2.27,4.656,2.775c1.023,0.303,2.082,0.453,3.139,0.453
			c2.822,0,5.644-1.076,7.795-3.229C189.081,136.211,189.083,129.234,184.784,124.93z"/>
		<path opacity="0.1412" fill="#75A2F2" enable-background="new    " d="M184.784,124.93l-0.005-0.004
			c-4.307-4.307-11.285-4.307-15.59-0.002c-0.539,0.539-1.01,1.119-1.414,1.729c-1.209,1.834-1.813,3.951-1.813,6.068
			c0,2.818,1.076,5.641,3.228,7.793c1.346,1.346,2.953,2.27,4.656,2.775c1.023,0.303,2.082,0.453,3.139,0.453
			c2.822,0,5.644-1.076,7.795-3.229C189.081,136.211,189.083,129.234,184.784,124.93z"/>
		<path opacity="0.1451" fill="#75A2F2" enable-background="new    " d="M184.784,124.93l-0.005-0.004
			c-4.307-4.307-11.285-4.307-15.59-0.002c-0.539,0.539-1.01,1.119-1.414,1.729c-1.209,1.834-1.813,3.951-1.813,6.068
			c0,2.818,1.076,5.641,3.228,7.793c1.346,1.346,2.953,2.27,4.656,2.775c1.023,0.303,2.082,0.453,3.139,0.453
			c2.822,0,5.644-1.076,7.795-3.229C189.081,136.211,189.083,129.234,184.784,124.93z"/>
		<path opacity="0.1451" fill="#75A2F2" enable-background="new    " d="M229.016,140.514c4.305-4.305,4.305-11.285,0-15.59
			s-11.285-4.305-15.59,0.002l-14.322,14.322l15.588,15.592L229.016,140.514z"/>
		<path opacity="0.1451" fill="#75A2F2" enable-background="new    " d="M169.189,184.754c-2.151-2.152-3.229-4.975-3.229-7.795
			C165.961,179.779,167.036,182.602,169.189,184.754z"/>
		<path opacity="0.1451" fill="#75A2F2" enable-background="new    " d="M169.189,169.162c4.306-4.303,11.285-4.303,15.59,0
			l7.795,7.797l6.529-6.529l-15.59-15.59L169.189,169.162z"/>
		
			<rect x="188.068" y="143.816" transform="matrix(-0.7071 0.7071 -0.7071 -0.7071 449.3593 123.549)" opacity="0.1412" fill="#75A2F2" enable-background="new    " width="22.047" height="22.047"/>
		
			<rect x="188.068" y="143.816" transform="matrix(-0.7071 0.7071 -0.7071 -0.7071 449.3593 123.549)" opacity="0.1451" fill="#75A2F2" enable-background="new    " width="22.047" height="22.047"/>
		<path opacity="0.1451" fill="#75A2F2" enable-background="new    " d="M169.189,169.162c-0.27,0.271-0.521,0.551-0.756,0.84
			c-1.648,2.02-2.472,4.488-2.472,6.957c0,2.82,1.076,5.643,3.228,7.795c2.153,2.152,4.975,3.229,7.795,3.229
			c2.822,0,5.644-1.076,7.795-3.229l7.796-7.795l-7.796-7.797C180.473,164.859,173.494,164.859,169.189,169.162z"/>
		<path opacity="0.1451" fill="#75A2F2" enable-background="new    " d="M169.189,169.162c-0.27,0.271-0.521,0.551-0.756,0.84
			c-1.648,2.02-2.472,4.488-2.472,6.957c0,2.82,1.076,5.643,3.228,7.795c2.153,2.152,4.975,3.229,7.795,3.229
			c2.822,0,5.644-1.076,7.795-3.229l7.796-7.795l-7.796-7.797C180.473,164.859,173.494,164.859,169.189,169.162z"/>
		<polygon opacity="0.149" fill="#75A2F2" enable-background="new    " points="236.816,0 236.805,0 236.811,0.008 		"/>
		<path opacity="0.1451" fill="#75A2F2" enable-background="new    " d="M213.425,7.803c2.153,2.15,4.974,3.229,7.796,3.229
			c2.82,0,5.641-1.078,7.795-3.229l7.795-7.795L236.803,0h-26.607C210.195,2.822,211.271,5.646,213.425,7.803z"/>
		<path opacity="0.149" fill="#75A2F2" enable-background="new    " d="M213.425,7.803c2.153,2.15,4.974,3.229,7.796,3.229
			c2.82,0,5.641-1.078,7.795-3.229l7.795-7.795L236.803,0h-26.607C210.195,2.822,211.271,5.646,213.425,7.803z"/>
		<path opacity="0.149" fill="#75A2F2" enable-background="new    " d="M212.014,38.18c0.403-0.611,0.875-1.191,1.412-1.73
			C212.887,36.988,212.417,37.566,212.014,38.18z"/>
		<path opacity="0.149" fill="#75A2F2" enable-background="new    " d="M258.93,22.127l11.235-11.234
			c-5.71-5.266-12.908-8.926-20.892-10.291l-5.934,5.936L258.93,22.127z"/>
		<path opacity="0.149" fill="#75A2F2" enable-background="new    " d="M229.016,36.449l7.795,7.795l6.529-6.527l-15.59-15.59
			l-14.324,14.322C217.73,32.146,224.71,32.146,229.016,36.449z"/>
		<path opacity="0.149" fill="#75A2F2" enable-background="new    " d="M210.197,44.244c0-2.115,0.604-4.23,1.814-6.064
			C210.803,40.014,210.197,42.129,210.197,44.244z"/>
		
			<rect x="232.323" y="11.106" transform="matrix(-0.7071 -0.7072 0.7072 -0.7071 399.7605 209.8607)" opacity="0.1451" fill="#75A2F2" enable-background="new    " width="22.049" height="22.047"/>
		
			<rect x="232.323" y="11.106" transform="matrix(-0.7071 -0.7072 0.7072 -0.7071 399.7605 209.8607)" opacity="0.149" fill="#75A2F2" enable-background="new    " width="22.049" height="22.047"/>
		<path opacity="0.1451" fill="#75A2F2" enable-background="new    " d="M229.016,52.039l7.795-7.795l-7.795-7.795
			c-4.305-4.305-11.285-4.305-15.59,0c-0.537,0.539-1.009,1.117-1.412,1.73c-1.211,1.832-1.816,3.949-1.816,6.064
			c0,2.82,1.076,5.643,3.229,7.795c2.153,2.152,4.975,3.229,7.795,3.229C224.042,55.268,226.863,54.191,229.016,52.039z"/>
		<path opacity="0.149" fill="#75A2F2" enable-background="new    " d="M229.016,52.039l7.795-7.795l-7.795-7.795
			c-4.305-4.305-11.285-4.305-15.59,0c-0.537,0.539-1.009,1.117-1.412,1.73c-1.211,1.832-1.816,3.949-1.816,6.064
			c0,2.82,1.076,5.643,3.229,7.795c2.153,2.152,4.975,3.229,7.795,3.229C224.042,55.268,226.863,54.191,229.016,52.039z"/>
		<path opacity="0.149" fill="#75A2F2" enable-background="new    " d="M273.254,52.039c-2.152,2.152-4.975,3.23-7.795,3.23
			c-2.818,0-5.639-1.078-7.79-3.227l14.317,14.32l11.477-11.479v-8.227l-10.21-10.211C277.559,40.756,277.559,47.734,273.254,52.039
			z"/>
		<path opacity="0.1451" fill="#75A2F2" enable-background="new    " d="M257.664,36.449c-4.305,4.307-4.305,11.285,0,15.59
			l0.006,0.006c2.15,2.146,4.971,3.225,7.79,3.225c2.821,0,5.642-1.076,7.795-3.229c4.306-4.307,4.306-11.285,0-15.592
			C268.949,32.146,261.969,32.146,257.664,36.449z"/>
		<path opacity="0.149" fill="#75A2F2" enable-background="new    " d="M257.664,36.449c-4.305,4.307-4.305,11.285,0,15.59
			l0.006,0.006c2.15,2.146,4.971,3.225,7.79,3.225c2.821,0,5.642-1.076,7.795-3.229c4.306-4.307,4.306-11.285,0-15.592
			C268.949,32.146,261.969,32.146,257.664,36.449z"/>
		<path opacity="0.149" fill="#75A2F2" enable-background="new    " d="M273.254,96.277c-2.152,2.152-4.975,3.23-7.795,3.23
			s-5.643-1.078-7.795-3.23l14.324,14.324l11.476-11.477v-8.229l-2.415-2.414L273.254,96.277z"/>
		<path opacity="0.1451" fill="#75A2F2" enable-background="new    " d="M256.251,94.549c-1.21-1.834-1.815-3.949-1.815-6.064
			C254.436,90.6,255.041,92.715,256.251,94.549z"/>
		<path opacity="0.149" fill="#75A2F2" enable-background="new    " d="M256.251,94.549c-1.21-1.834-1.815-3.949-1.815-6.064
			C254.436,90.6,255.041,92.715,256.251,94.549z"/>
		<path opacity="0.1451" fill="#75A2F2" enable-background="new    " d="M257.664,96.277c-0.538-0.537-1.01-1.117-1.413-1.729
			C256.654,95.16,257.126,95.74,257.664,96.277z"/>
		<path opacity="0.149" fill="#75A2F2" enable-background="new    " d="M257.664,96.277c-0.538-0.537-1.01-1.117-1.413-1.729
			C256.654,95.16,257.126,95.74,257.664,96.277z"/>
		<path opacity="0.149" fill="#75A2F2" enable-background="new    " d="M257.664,140.514c-4.303-4.303-4.305-11.277-0.005-15.584
			l-36.438,36.438l7.795,7.795c4.305,4.307,4.305,11.287,0,15.592l44.233-44.234c-2.151,2.148-4.972,3.223-7.79,3.223
			C262.639,143.742,259.816,142.666,257.664,140.514z"/>
		<path opacity="0.1412" fill="#75A2F2" enable-background="new    " d="M229.016,169.162l-7.795-7.795l-7.795,7.795
			c-4.304,4.307-4.304,11.285,0,15.592c2.153,2.152,4.975,3.229,7.795,3.229c2.821,0,5.643-1.076,7.795-3.229
			C233.32,180.449,233.32,173.469,229.016,169.162z"/>
		<path opacity="0.149" fill="#75A2F2" enable-background="new    " d="M229.016,169.162l-7.795-7.795l-7.795,7.795
			c-4.304,4.307-4.304,11.285,0,15.592c2.153,2.152,4.975,3.229,7.795,3.229c2.821,0,5.643-1.076,7.795-3.229
			C233.32,180.449,233.32,173.469,229.016,169.162z"/>
		<polygon opacity="0.1529" fill="#75A2F2" enable-background="new    " points="265.459,72.893 273.249,80.684 273.254,80.688 
			281.049,88.482 283.464,86.066 283.464,77.842 271.988,66.363 		"/>
		<path opacity="0.1451" fill="#75A2F2" enable-background="new    " d="M254.436,88.482c0-2.82,1.076-5.643,3.229-7.795
			C255.511,82.842,254.436,85.662,254.436,88.482z"/>
		<path opacity="0.1529" fill="#75A2F2" enable-background="new    " d="M254.436,88.482c0-2.82,1.076-5.643,3.229-7.795
			C255.511,82.842,254.436,85.662,254.436,88.482z"/>
		<path opacity="0.1451" fill="#75A2F2" enable-background="new    " d="M273.249,80.684l-7.79-7.791l-7.795,7.795
			C261.967,76.385,268.941,76.385,273.249,80.684z"/>
		<path opacity="0.1529" fill="#75A2F2" enable-background="new    " d="M273.249,80.684l-7.79-7.791l-7.795,7.795
			C261.967,76.385,268.941,76.385,273.249,80.684z"/>
		<polygon opacity="0.149" fill="#75A2F2" enable-background="new    " points="283.464,77.842 283.464,54.887 271.988,66.363 		"/>
		<polygon opacity="0.1529" fill="#75A2F2" enable-background="new    " points="283.464,77.842 283.464,54.887 271.988,66.363 		
			"/>
		<path opacity="0.149" fill="#75A2F2" enable-background="new    " d="M273.254,96.277l7.795-7.795l-7.795-7.795
			c-0.002-0.002-0.004-0.004-0.005-0.004l0.005,0.004C277.559,84.992,277.559,91.973,273.254,96.277z"/>
		<path opacity="0.1529" fill="#75A2F2" enable-background="new    " d="M273.254,96.277l7.795-7.795l-7.795-7.795
			c-0.002-0.002-0.004-0.004-0.005-0.004l0.005,0.004C277.559,84.992,277.559,91.973,273.254,96.277z"/>
		<path opacity="0.1451" fill="#75A2F2" enable-background="new    " d="M273.254,96.277c4.305-4.305,4.305-11.285,0-15.59
			l-0.005-0.004c-4.308-4.299-11.281-4.299-15.585,0.004c-2.152,2.152-3.229,4.975-3.229,7.795c0,2.115,0.605,4.232,1.815,6.066
			c0.403,0.609,0.875,1.189,1.413,1.729c2.152,2.152,4.975,3.229,7.795,3.229S271.102,98.432,273.254,96.277z"/>
		<path opacity="0.149" fill="#75A2F2" enable-background="new    " d="M273.254,96.277c4.305-4.305,4.305-11.285,0-15.59
			l-0.005-0.004c-4.308-4.299-11.281-4.299-15.585,0.004c-2.152,2.152-3.229,4.975-3.229,7.795c0,2.115,0.605,4.232,1.815,6.066
			c0.403,0.609,0.875,1.189,1.413,1.729c2.152,2.152,4.975,3.229,7.795,3.229S271.102,98.432,273.254,96.277z"/>
		<path opacity="0.1529" fill="#75A2F2" enable-background="new    " d="M273.254,96.277c4.305-4.305,4.305-11.285,0-15.59
			l-0.005-0.004c-4.308-4.299-11.281-4.299-15.585,0.004c-2.152,2.152-3.229,4.975-3.229,7.795c0,2.115,0.605,4.232,1.815,6.066
			c0.403,0.609,0.875,1.189,1.413,1.729c2.152,2.152,4.975,3.229,7.795,3.229S271.102,98.432,273.254,96.277z"/>
		<path opacity="0.1529" fill="#75A2F2" enable-background="new    " d="M257.664,124.924c-0.002,0.002-0.003,0.004-0.005,0.006
			L257.664,124.924c4.307-4.305,11.285-4.305,15.59,0s4.305,11.285,0,15.59l-0.005,0.006c0.001-0.002,0.003-0.004,0.005-0.004
			l10.21-10.211v-8.227l-11.476-11.477L257.664,124.924z"/>
		<polygon opacity="0.149" fill="#75A2F2" enable-background="new    " points="283.464,122.078 283.464,99.125 271.988,110.602 		
			"/>
		<polygon opacity="0.1529" fill="#75A2F2" enable-background="new    " points="283.464,122.078 283.464,99.125 271.988,110.602 		
			"/>
		<path opacity="0.149" fill="#75A2F2" enable-background="new    " d="M273.254,124.924c-4.305-4.305-11.285-4.305-15.59,0.002
			l-0.005,0.004c-4.3,4.307-4.298,11.281,0.005,15.584c2.152,2.152,4.975,3.229,7.795,3.229c2.818,0,5.639-1.072,7.79-3.223
			l0.005-0.006C277.559,136.209,277.559,129.229,273.254,124.924z"/>
		<path opacity="0.1529" fill="#75A2F2" enable-background="new    " d="M273.254,124.924c-4.305-4.305-11.285-4.305-15.59,0.002
			l-0.005,0.004c-4.3,4.307-4.298,11.281,0.005,15.584c2.152,2.152,4.975,3.229,7.795,3.229c2.818,0,5.639-1.072,7.79-3.223
			l0.005-0.006C277.559,136.209,277.559,129.229,273.254,124.924z"/>
	</g>
	<g id="border">
		
			<linearGradient id="border_2_" gradientUnits="userSpaceOnUse" x1="141.8428" y1="624.1621" x2="141.8427" y2="337.8643" gradientTransform="matrix(1 0 0 1 -0.1104 -339.2812)">
			<stop  offset="0" style="stop-color:#171717"/>
			<stop  offset="1" style="stop-color:#031E38"/>
		</linearGradient>
		<path id="border_1_" fill="none" stroke="url(#border_2_)" stroke-width="2.8346" stroke-miterlimit="10" d="M41.158,0h201.148
			c22.729,0,41.157,18.465,41.157,41.24v200.98c0,22.775-18.428,41.244-41.157,41.244H41.158c-22.73,0-41.157-18.467-41.157-41.244
			V41.24C0.001,18.465,18.429,0,41.158,0z"/>
	</g>
	<g id="Pi_helvetica_1_">
		<g opacity="0.75">
			<path d="M160.971,154.688c-8.007,6.682-19.443,10.021-34.308,10.021H98.181v49.189H69.783V77.1h58.736
				c13.542,0,24.336,3.527,32.391,10.58c8.048,7.055,12.076,17.977,12.076,32.762C172.984,136.59,168.98,148.004,160.971,154.688z
				 M139.154,105.406c-3.62-3.029-8.691-4.549-15.213-4.549h-25.76v40.277h25.759c6.523,0,11.594-1.641,15.213-4.918
				c3.621-3.279,5.43-8.479,5.43-15.592C144.585,113.512,142.773,108.438,139.154,105.406z"/>
			<path d="M220.963,100.674h-26.822V76.266h26.822V100.674z M194.143,112.736h26.822v101.162h-26.822V112.736z"/>
		</g>
		<g>
			<g>
				<g>
					<path fill="#FFFFFF" d="M157.82,151.535c-8.006,6.684-19.442,10.023-34.306,10.023H95.03v49.188H66.633V73.949h58.737
						c13.541,0,24.337,3.527,32.388,10.58c8.051,7.055,12.078,17.975,12.078,32.762C169.836,133.438,165.83,144.854,157.82,151.535z
						 M136.005,102.256c-3.62-3.029-8.691-4.547-15.213-4.547H95.031v40.275h25.759c6.523,0,11.594-1.639,15.213-4.918
						s5.429-8.477,5.429-15.592C141.435,110.361,139.624,105.289,136.005,102.256z"/>
					<path fill="#FFFFFF" d="M217.812,97.523H190.99V73.115h26.822V97.523z M190.993,109.588h26.821v101.16h-26.821V109.588z"/>
				</g>
			</g>
		</g>
	</g>
</g>
</svg>
